<?xml version="1.0" encoding="UTF-8"?>
<!-- Created with Inkscape (http://www.inkscape.org/) -->
<svg width="1122.5" height="793.7" version="1.1" viewBox="0 0 297 210" xmlns="http://www.w3.org/2000/svg">
 <g transform="translate(-4.7683 1.3624)">
  <g transform="matrix(.67383 0 0 .75979 -8.251 42.303)" stroke-width="1.4907">
   <path d="m63.617 89.236v-74.537h152.05v149.07h-152.05zm85.62 58.295c1.1806-1.9102-2.864-3.1377-10.339-3.1377-3.5554 0-7.5217 0.40571-8.8139 0.90157-4.7524 1.8237-0.44014 3.5706 8.8139 3.5706 5.2326 0 9.8849-0.60054 10.339-1.3345zm-7.1832-8.7395c1.3654-2.1863 21.475-15.268 23.471-15.268 0.34614 0 1.0614 1.7216 1.5896 3.8259 1.5659 6.2392 5.631 3.9211 8.0276-4.5778 3.5403-12.555 4.4528-14.155 8.0741-14.161 1.8624-3e-3 5.5724-1.3386 8.2446-2.9678 10.498-6.4008 14.154-20.183 7.11-26.801-3.3512-3.1483-4.6186-3.3828-14.022-2.5944l-10.338 0.86667-1.869-4.7464c-1.028-2.6105-3.4389-6.8818-5.3576-9.4918-4.168-5.6696-4.3684-7.7074-0.8798-8.9445 7.8331-2.7779 10.143-9.8394 4.7997-14.675-2.3942-2.1667-3.8738-2.4427-7.081-1.3208-3.5346 1.2364-4.1126 2.3223-4.5087 8.4709-0.2499 3.879-1.1547 7.0527-2.0107 7.0527-0.85598 0-3.4363-2.0125-5.734-4.4722-3.6964-3.957-5.1561-4.4722-12.671-4.4722-7.5618 0-8.9635 0.50305-12.777 4.5857-4.9463 5.295-7.9524 4.5431-6.5924-1.649 0.68969-3.1402 0.13487-5.028-2.1488-7.3117-3.7202-3.7202-7.1384-3.9139-10.788-0.61144-5.0578 4.5772-2.5376 11.694 5.1002 14.403 3.3958 1.2043 3.2932 3.3241-0.41262 8.5285-1.6618 2.3337-3.9974 6.5792-5.1904 9.4343l-2.169 5.1911-10.946-0.82783c-10.708-0.80982-11.019-0.73439-14.331 3.467-5.9197 7.5103-2.2116 19.879 7.7874 25.976 2.6201 1.5976 6.1391 2.9072 7.8199 2.9103 4.0133 7e-3 6.6337 2.7653 6.6337 6.9818 0 1.8692 1.0922 6.128 2.427 9.4642 2.6644 6.659 6.9055 7.6486 7.7391 1.8058 0.6264-4.3905 2.0623-4.2183 9.45 1.1333 3.3955 2.4597 7.0282 4.4722 8.0727 4.4722 1.0445 0 3.4594 1.9754 5.3666 4.3897 4.0416 5.1165 5.8562 5.5491 8.1136 1.9343zm-55.778-39.418c-3.9763-3.9763-1.0796-11.628 4.402-11.628 3.8792 0 10.207 3.2092 10.207 5.1765 0 2.1007-8.063 8.2401-10.822 8.2401-1.0991 0-2.8033-0.805-3.7872-1.7889zm94.363-2.014-4.4722-3.7621 3.5193-2.9258c4.641-3.8583 9.9245-3.7098 12.774 0.35918 1.9575 2.7947 2.0002 3.7403 0.28638 6.3356-2.8664 4.3406-6.9426 4.3383-12.108-0.0069zm-99.528-9.0141c-1.4507-1.4507 0.54112-5.0718 2.7898-5.0718 2.3437 0 2.4406 0.29827 1.1717 3.6049-0.93966 2.4487-2.4284 3-3.9615 1.4669zm111.61-1.4669c-1.2689-3.3066-1.1719-3.6049 1.1718-3.6049 2.2487 0 4.2405 3.6211 2.7898 5.0718-1.5331 1.5331-3.0219 0.98182-3.9615-1.4669zm-97.802-2.1774c-4.8451-2.5938-4.9515-2.7961-1.4907-2.8329 4.4628-0.04749 8.03 1.9608 7.2627 4.0887-0.33458 0.92784-2.6231 0.42992-5.7719-1.2558zm81.99 1.8202c0-2.3501 3.6817-4.7384 7.3046-4.7384 2.0737 0 3.0986 0.53566 2.3106 1.2076-2.4823 2.1166-9.6152 4.7359-9.6152 3.5308zm-51.499-2.1446c-1.2796-3.3347-0.23122-9.3678 1.5598-8.9757 0.8199 0.17949 1.7109 2.106 1.98 4.2811 0.58318 4.7143-2.1441 8.3314-3.5397 4.6946zm23.852 0c-1.2796-3.3347-0.23122-9.3678 1.5598-8.9757 0.8199 0.17949 1.7109 2.106 1.98 4.2811 0.58318 4.7143-2.1441 8.3314-3.5397 4.6946z" fill="#f5f6f5"/>
   <path d="m128.56 147.53c-1.1806-1.9102 2.864-3.1377 10.339-3.1377 3.5554 0 7.5217 0.40571 8.8139 0.90157 4.7524 1.8237 0.44014 3.5706-8.8139 3.5706-5.2326 0-9.8849-0.60054-10.339-1.3345zm9.3137-7.1375c1.0761-0.43063 2.3619-0.37767 2.8572 0.1177 0.49535 0.49535-0.38511 0.84769-1.9566 0.78296-1.7366-0.0715-2.0898-0.42477-0.90065-0.90065zm-5.0797-5.3173-2.8398-3.3542 3.3541 2.8398c3.1521 2.6687 4.0328 3.8685 2.8398 3.8685-0.28287 0-1.7922-1.5094-3.3541-3.3541zm11.659-0.49004c1.4153-1.4776 2.8942-2.3658 3.2864-1.9736 0.39218 0.39218-0.76579 1.6012-2.5733 2.6866-3.1399 1.8857-3.1717 1.8539-0.71307-0.71306zm-10.247-5.0902c-6.9687-2.8117-5.2527-4.4822 4.6044-4.4822 10.559 0 12.574 1.7151 5.0831 4.3264-5.3904 1.8791-5.4153 1.8795-9.6874 0.1558zm37.584-0.44695c0.55982-1.4702 1.3934-2.2975 1.8524-1.8386 0.45898 0.45897 9.5e-4 1.6619-1.0178 2.6731-1.4723 1.4613-1.6435 1.2901-0.83451-0.83451zm-61.491-2.4277c0.15139-1.9855 1.2815-3.8814 2.5114-4.213 1.4775-0.39839 1.6624-0.18512 0.54514 0.6286-0.93003 0.67734-2.0601 2.5732-2.5114 4.213-0.64688 2.3509-0.76218 2.2179-0.54514-0.62859zm56.178-1.0216c0-1.5526-0.81412-2.0832-2.3135-1.5078-1.3266 0.50908-1.925 0.25916-1.4028-0.58588 1.6126-2.6093 5.207-1.5684 5.207 1.5078 0 1.6398-0.33541 2.9815-0.74536 2.9815s-0.74537-1.078-0.74537-2.3956zm-38.95-6.5084c-10.857-1.9387-17.435-6.6161-15.692-11.158 0.74738-1.9477 1.6117-1.9377 7.2477 0.0835 8.5852 3.0789 31.115 3.0541 39.755-0.0437 8.0394-2.8822 7.6389-2.9038 7.6389 0.41183 0 3.238-3.7016 6.8987-9.0204 8.921-5.7624 2.1909-22.176 3.1701-29.93 1.7856zm49.385-7.406c0-0.77152 0.66315-1.8126 1.4737-2.3135 0.84503-0.52226 1.095 0.0761 0.58587 1.4028-0.99102 2.5826-2.0595 3.0551-2.0595 0.91077zm-95.52-10.15-3.614-4.0995 4.0995 3.614c2.2547 1.9877 4.0995 3.8325 4.0995 4.0995 0 1.1691-1.2072 0.21761-4.585-3.614zm44.414 2.567c-13.768-3.4734-17.919-7.67-17.688-17.885 0.13802-6.1262 3.4075-16.361 5.2266-16.361 0.25137 0 0.15116 3.6885-0.2227 8.1968-0.79032 9.5302 0.58702 11.859 9.3788 15.858 8.1799 3.7209 24.735 3.6652 33.053-0.11133 10.29-4.672 11.892-8.8416 8.3343-21.696-0.71139-2.5707-0.50343-2.7055 1.5474-1.0035 3.7666 3.126 6.1378 17.165 3.7494 22.199-4.2248 8.9051-27.712 14.754-43.378 10.801zm68.995-2.1944c1.9256-2.0498 3.8366-3.7268 4.2465-3.7268s-0.83016 1.6771-2.7558 3.7268c-1.9256 2.0498-3.8366 3.7268-4.2465 3.7268s0.83016-1.6771 2.7558-3.7268zm5.3134-19.688c-0.80899-2.1246-0.63776-2.2958 0.83451-0.8345 1.0188 1.0112 1.4768 2.2141 1.0178 2.6731-0.45897 0.45898-1.2925-0.36838-1.8524-1.8386zm-119.01-5.0941c1.0112-1.0188 2.2141-1.4768 2.6731-1.0178 0.45898 0.45898-0.36838 1.2925-1.8386 1.8524-2.1246 0.809-2.2958 0.63776-0.8345-0.8345zm18.286 1.1042c0-0.31432 1.3426-0.92259 2.9835-1.3517 1.6409-0.42911 2.6076-0.17194 2.1481 0.5715-0.80239 1.2983-5.1316 1.9565-5.1316 0.78021zm75.748-0.44684c1.0761-0.43063 2.3619-0.37767 2.8572 0.11769 0.49535 0.49536-0.38511 0.84769-1.9566 0.78296-1.7366-0.07152-2.0898-0.42477-0.90065-0.90065zm-42.367-14.788c-1.2343-2.9541-2.0386-7.1468-1.7874-9.3171 0.41105-3.5501 1.1429-3.9905 7.2957-4.3904 8.9202-0.57974 10.805 1.5242 8.4902 9.4782-2.2655 7.7855-3.8032 9.6004-8.134 9.6004-2.7482 0-4.161-1.2939-5.8646-5.3712zm32.021-1.7098c-1.8543-2.3644-1.8015-2.4171 0.56284-0.56283 1.4348 1.1253 2.6088 2.2992 2.6088 2.6088 0 1.2269-1.2242 0.43724-3.1716-2.0459zm-52.191-0.72638c1.1166-1.4244 1.6274-3.6394 1.1351-4.9223-0.51482-1.3416-0.26903-1.9456 0.57859-1.4217 2.2779 1.4078 1.7473 4.6273-1.1351 6.8879-2.3602 1.851-2.4153 1.7992-0.57859-0.54385zm12.132-10.644c0-0.30956 1.174-1.4835 2.6088-2.6088 2.3644-1.8543 2.4171-1.8015 0.56283 0.56283-1.9474 2.4832-3.1716 3.2729-3.1716 2.0459zm25.152-2.0459c-1.8543-2.3644-1.8015-2.4171 0.56284-0.56283 1.4348 1.1253 2.6088 2.2992 2.6088 2.6088 0 1.2269-1.2242 0.43724-3.1716-2.0459zm-40.516-1.326c-1.3912-1.3912 0.28998-3.5189 2.7805-3.5189 1.1815 0 2.1481 1.0062 2.1481 2.2361 0 2.2454-3.1469 3.0645-4.9286 1.2828zm9.5184-1.407c0.0715-1.7366 0.42477-2.0899 0.90065-0.90065 0.43063 1.0761 0.37767 2.3619-0.11769 2.8572-0.49536 0.49536-0.84769-0.38511-0.78296-1.9566zm44.604 0.12423c0-1.5354 0.97702-2.2666 2.6088-1.9523 3.1422 0.60514 2.9441 3.2508-0.29394 3.925-1.3506 0.28121-2.3148-0.54053-2.3148-1.9727zm-31.585-0.27297c1.0761-0.43063 2.3619-0.37767 2.8572 0.11769 0.49535 0.49536-0.38511 0.84769-1.9566 0.78296-1.7366-0.07153-2.0898-0.42477-0.90065-0.90065zm11.926 0c1.0761-0.43063 2.3619-0.37767 2.8572 0.11769 0.49535 0.49536-0.38511 0.84769-1.9566 0.78296-1.7366-0.07153-2.0898-0.42477-0.90065-0.90065zm-35.769-6.7602c0.79498-0.79498 2.6906-1.1815 4.2125-0.85888 2.0495 0.43442 1.6746 0.80928-1.4454 1.4454-2.7203 0.55464-3.7005 0.34687-2.7671-0.58653zm56.546-0.66237c1.0249-0.41355 2.702-0.41355 3.7268 0 1.0249 0.41355 0.18634 0.7519-1.8634 0.7519-2.0498 0-2.8883-0.33836-1.8634-0.7519z" fill="#d1a61b"/>
   <path d="m135.48 136.88c-1.0429-1.6699-3.6029-3.6851-5.6889-4.4782-2.0861-0.79312-6.7664-3.4879-10.401-5.9885-7.1824-4.9416-9.5644-4.7126-9.5644 0.91956 0 8.6673-5.4037 1.8123-8.1843-10.382-1.5697-6.8842-2.045-7.4245-8.1056-9.214-12.053-3.5588-19.624-14.884-16.308-24.396 2.4855-7.1298 10.459-8.9192 23.176-5.2016 2.7994 0.8183 3.6964-0.08843 6.4734-6.544 1.7731-4.1216 4.5034-8.6519 6.0674-10.067 4.1763-3.7795 3.4903-6.4655-2.2654-8.8704-8.1021-3.3853-8.8368-11.683-1.2041-13.598 5.5178-1.3849 8.4813 1.1895 9.0215 7.837 0.6708 8.2545 2.2463 8.9652 7.474 3.3715 4.1281-4.417 5.4178-4.9067 12.924-4.9067 7.4896 0 8.8004 0.49454 12.879 4.8591 5.4227 5.8023 9.1952 4.4106 7.7419-2.8558-1.0986-5.4928 1.5741-8.8181 7.0872-8.8181 8.3596 0 9.4226 10.83 1.3395 13.647-5.8515 2.0399-6.3445 4.6197-1.9928 10.428 2.0577 2.7465 4.7671 7.5093 6.0209 10.584 2.5944 6.362 2.0373 6.1321 9.4655 3.9066 13.361-4.0031 23 3.4188 19.52 15.031-2.1243 7.0902-8.7011 13.23-16.703 15.592-6.0605 1.7895-6.5359 2.3298-8.1056 9.214-2.0236 8.875-4.8561 14.412-6.7684 13.23-0.77877-0.4813-1.4159-2.5126-1.4159-4.5139 0-4.7968-1.243-4.6124-10.644 1.5787-4.3574 2.8697-8.7608 5.2176-9.7855 5.2176-1.0247 0-2.9619 1.6771-4.305 3.7268-2.9617 4.5201-5.2322 4.7225-7.7501 0.69068zm8.4101-7.5448c7.4907-2.6113 5.4757-4.3264-5.0831-4.3264-9.857 0-11.573 1.6705-4.6044 4.4822 4.2721 1.7237 4.297 1.7233 9.6874-0.1558zm13.563-12.034c5.3189-2.0222 9.0204-5.683 9.0204-8.921 0-3.3156 0.40047-3.294-7.6389-0.41182-8.6407 3.0978-31.17 3.1226-39.755 0.0437-5.636-2.0212-6.5004-2.0312-7.2477-0.0835-0.95682 2.4934 1.5379 6.0438 5.8794 8.3672 7.5538 4.0427 30.244 4.6167 39.742 1.0054zm2.7912-16.409c9.3137-4.6218 11.432-9.1617 9.2272-19.78-0.91904-4.427-2.7371-8.9338-4.0402-10.015-2.0508-1.702-2.2588-1.5672-1.5474 1.0035 3.5573 12.854 1.9556 17.024-8.3343 21.696-8.3177 3.7765-24.873 3.8323-33.053 0.11133-8.7918-3.9993-10.169-6.3282-9.3788-15.858 0.37386-4.5082 0.47407-8.1968 0.2227-8.1968-0.25138 0-1.4924 2.0021-2.7577 4.449-2.8818 5.5727-3.2936 18.583-0.68766 21.723 7.9821 9.6178 35.429 12.271 50.349 4.8678zm-60.854 1.7565c0-0.8199-0.71042-1.4907-1.5787-1.4907-0.86829 0-1.1641 0.67083-0.65739 1.4907s1.2171 1.4907 1.5787 1.4907c0.36156 0 0.65739-0.67083 0.65739-1.4907zm-2.9211-4.7525c5.4088-3.9989 5.5671-6.1683 0.61486-8.4248-5.8532-2.6669-9.3219-2.0795-12.018 2.035-2.3101 3.5257-2.2976 3.9521 0.19668 6.7083 3.4174 3.7762 5.7578 3.7097 11.206-0.31854zm95.602 0.79466c3.3678-3.0478 3.4208-4.7296 0.25902-8.2233-3.208-3.5448-8.2393-3.4653-12.648 0.19966l-3.5193 2.9258 4.4722 3.7289c5.2878 4.4089 7.7509 4.7037 11.436 1.3689zm-106.1-14.128c0-0.61481-0.59482-1.4854-1.3218-1.9348-2.1164-1.308-5.072 3.3332-3.956 6.2122 0.95361 2.4601 1.1545 2.4431 3.1482-0.26594 1.1713-1.5915 2.1296-3.3967 2.1296-4.0115zm111.8 2.5276c0-1.0811-0.94652-2.7511-2.1034-3.7112-2.9029-2.4092-4.4552 0.46359-2.363 4.373 1.6982 3.1731 4.4663 2.763 4.4663-0.66175zm-98.579-3.971c-1.1248-0.71252-3.7222-1.2776-5.7719-1.2558-3.4608 0.03682-3.3543 0.23908 1.4907 2.8329 3.1489 1.6858 5.4374 2.1837 5.7719 1.2558 0.30491-0.84557-0.36592-2.1204-1.4907-2.8329zm87.324-0.13356c0.788-0.67193-0.23694-1.2076-2.3106-1.2076-3.6228 0-7.3046 2.3883-7.3046 4.7384 0 1.2051 7.133-1.4141 9.6152-3.5308zm-57.575-3.3084c-0.26907-2.1751-1.16-4.1016-1.98-4.2811-1.791-0.39206-2.8394 5.6411-1.5598 8.9757 1.3956 3.6368 4.1229 0.01968 3.5397-4.6946zm23.852 0c-0.26907-2.1751-1.16-4.1016-1.98-4.2811-1.791-0.39206-2.8394 5.6411-1.5598 8.9757 1.3956 3.6368 4.1229 0.01968 3.5397-4.6946zm-9.1418-13.179c0.77123-1.0249 2.1714-4.5065 3.1114-7.737 2.3146-7.954 0.42995-10.058-8.4902-9.4782-6.1529 0.39989-6.8847 0.84027-7.2957 4.3904-0.25128 2.1702 0.55303 6.3629 1.7874 9.3171 1.7036 4.0773 3.1164 5.3712 5.8646 5.3712 1.9912 0 4.2514-0.83854 5.0226-1.8634zm-29.361-21.243c0-1.2299-0.96665-2.2361-2.1481-2.2361-2.4905 0-4.1717 2.1277-2.7805 3.5189 1.7817 1.7817 4.9286 0.96258 4.9286-1.2828zm54.118 0.02041c0.16167-0.80867-0.88001-1.6964-2.3148-1.9727-1.6318-0.31425-2.6088 0.41691-2.6088 1.9523 0 2.5936 4.4056 2.6118 4.9236 0.02041z" fill="#4a4232"/>
  </g>
  <text transform="scale(.94174 1.0619)" x="151.35237" y="110.24966" font-family="'Nexa Rust Sans'" font-size="21.82px" stroke-width=".30276" style="font-variant-caps:normal;font-variant-east-asian:normal;font-variant-ligatures:normal;font-variant-numeric:normal;line-height:1.25" xml:space="preserve"><tspan x="151.35237" y="110.24966" font-family="'Nexa Rust Sans'" font-size="21.82px" stroke-width=".30276" style="font-variant-caps:normal;font-variant-east-asian:normal;font-variant-ligatures:normal;font-variant-numeric:normal">BeelyDrop</tspan></text>
 </g>
</svg>
