<?xml version="1.0" encoding="UTF-8" standalone="no"?>
<!-- Created with Inkscape (http://www.inkscape.org/) -->

<svg
   width="1122.5197"
   height="793.70081"
   viewBox="0 0 297 210"
   version="1.1"
   id="svg5"
   inkscape:version="1.1.2 (b8e25be8, 2022-02-05)"
   sodipodi:docname="evil.svg"
   xmlns:inkscape="http://www.inkscape.org/namespaces/inkscape"
   xmlns:sodipodi="http://sodipodi.sourceforge.net/DTD/sodipodi-0.dtd"
   xmlns="http://www.w3.org/2000/svg"
   xmlns:svg="http://www.w3.org/2000/svg">
  <sodipodi:namedview
     id="namedview7"
     pagecolor="#ffffff"
     bordercolor="#cccccc"
     borderopacity="1"
     inkscape:pageshadow="0"
     inkscape:pageopacity="1"
     inkscape:pagecheckerboard="0"
     inkscape:document-units="px"
     showgrid="false"
     units="px"
     inkscape:snap-bbox="true"
     inkscape:zoom="0.39082064"
     inkscape:cx="556.52127"
     inkscape:cy="364.61738"
     inkscape:window-width="1280"
     inkscape:window-height="703"
     inkscape:window-x="0"
     inkscape:window-y="25"
     inkscape:window-maximized="0"
     inkscape:current-layer="layer1" />
  <defs
     id="defs2" />
  <g
     inkscape:label="Layer 1"
     inkscape:groupmode="layer"
     id="layer1">
    <path
       id="path848"
       style="opacity:1;fill:#2b1100;stroke:#000000;stroke-width:0.207698;paint-order:stroke markers fill"
       d="M 154.35479,28.433825 A 49.420581,49.420581 0 0 0 104.93403,77.85458 49.420581,49.420581 0 0 0 107.29409,92.890872 49.420581,49.420581 0 0 0 61.606441,142.169 49.420581,49.420581 0 0 0 111.0272,191.58924 49.420581,49.420581 0 0 0 151.64642,170.29803 49.420581,49.420581 0 0 0 192.26617,191.58924 49.420581,49.420581 0 0 0 241.68692,142.169 49.420581,49.420581 0 0 0 201.20774,93.564734 49.420581,49.420581 0 0 0 203.77502,77.85458 49.420581,49.420581 0 0 0 154.35479,28.433825 Z"
       inkscape:export-filename="/Users/jefferyagyepong/Desktop/evil.png"
       inkscape:export-xdpi="29.823799"
       inkscape:export-ydpi="29.823799" />
    <ellipse
       style="fill:#ffffff;stroke:#000000;stroke-width:0.207698;paint-order:stroke markers fill"
       id="path1793-4"
       cx="172.63353"
       cy="72.099892"
       rx="8.8009253"
       ry="9.1394224"
       inkscape:export-filename="/Users/jefferyagyepong/Desktop/evil.png"
       inkscape:export-xdpi="29.823799"
       inkscape:export-ydpi="29.823799" />
    <ellipse
       style="opacity:1;fill:#ffffff;stroke:#000000;stroke-width:0.207698;paint-order:stroke markers fill"
       id="path1793"
       cx="132.69087"
       cy="72.099892"
       rx="8.8009253"
       ry="9.1394224"
       inkscape:export-filename="/Users/jefferyagyepong/Desktop/evil.png"
       inkscape:export-xdpi="29.823799"
       inkscape:export-ydpi="29.823799" />
    <ellipse
       style="opacity:1;fill:#ffffff;stroke:#000000;stroke-width:0.207698;paint-order:stroke markers fill"
       id="path1955"
       cx="152.66222"
       cy="130.3214"
       rx="28.095261"
       ry="3.7234683"
       inkscape:export-filename="/Users/jefferyagyepong/Desktop/evil.png"
       inkscape:export-xdpi="29.823799"
       inkscape:export-ydpi="29.823799" />
    <path
       style="opacity:1;fill:#000000;stroke:#000000;stroke-width:0.207698;paint-order:stroke markers fill"
       id="path2131"
       sodipodi:type="arc"
       sodipodi:cx="-53.673134"
       sodipodi:cy="200.20863"
       sodipodi:rx="11.216736"
       sodipodi:ry="6.435832"
       sodipodi:start="6.2261045"
       sodipodi:end="3.236869"
       sodipodi:open="true"
       sodipodi:arc-type="arc"
       d="m -42.474666,199.84147 a 11.216736,6.435832 0 0 1 -5.529061,5.92039 11.216736,6.435832 0 0 1 -11.704263,-0.12827 11.216736,6.435832 0 0 1 -5.131008,-6.03721"
       transform="rotate(-91.091372)"
       inkscape:export-filename="/Users/jefferyagyepong/Desktop/evil.png"
       inkscape:export-xdpi="29.823799"
       inkscape:export-ydpi="29.823799" />
    <path
       style="opacity:1;fill:#000000;stroke:#000000;stroke-width:0.207698;paint-order:stroke markers fill"
       id="path2131-8"
       sodipodi:type="arc"
       sodipodi:cx="48.796406"
       sodipodi:cy="-108.9381"
       sodipodi:rx="11.216736"
       sodipodi:ry="6.435832"
       sodipodi:start="6.2261045"
       sodipodi:end="3.236869"
       sodipodi:open="true"
       sodipodi:arc-type="arc"
       transform="rotate(88.90863)"
       d="m 59.994873,-109.30527 a 11.216736,6.435832 0 0 1 -5.52906,5.92039 11.216736,6.435832 0 0 1 -11.704264,-0.12826 11.216736,6.435832 0 0 1 -5.131007,-6.03722"
       inkscape:export-filename="/Users/jefferyagyepong/Desktop/evil.png"
       inkscape:export-xdpi="29.823799"
       inkscape:export-ydpi="29.823799" />
  </g>
</svg>
