<?xml version="1.0" encoding="UTF-8"?>
<!-- Created with Inkscape (http://www.inkscape.org/) -->
<svg width="1122.5" height="793.7" version="1.1" viewBox="0 0 297 210" xmlns="http://www.w3.org/2000/svg">
 <g transform="matrix(1.6861 0 0 1.398 -95.461 -44.145)">
  <path d="m191.76 129.58c-2.1614 0-3.9194-1.7585-3.9194-3.9194v-69.727c0-1.0189 0.81895-2.9459 3.9194-2.9459 4.9189 0 6.4472 17.466 6.4472 23.828 0 9.8691-2.1828 18.931-2.5278 20.3v28.545c0 2.1614-1.7579 3.9199-3.9194 3.9199zm-1.3096-31.323v27.404c0 0.72186 0.5872 1.3096 1.3096 1.3096s1.3096-0.58719 1.3096-1.3096v-27.404zm0-2.6098h2.8958c0.61955-2.6928 2.2512-10.573 2.2512-18.832 0-10.896-2.5607-20.282-3.9387-21.217-0.80485 0.01722-1.1577 0.24062-1.2078 0.40243v39.646zm-87.746 33.933c-0.97605 0-1.9156-0.38311-2.5774-1.0512-0.60807-0.61434-0.93899-1.415-0.93064-2.2538l0.42069-42.688c-3.2017-1.2355-5.5197-4.3254-5.5932-7.9353-1e-3 -0.03236-5.22e-4 -0.06524 1e-3 -0.09813l0.89515-19.68c0.03288-0.71925 0.65714-1.2636 1.3623-1.2443 0.7203 0.03288 1.2772 0.64305 1.2443 1.3628l-0.83304 18.315h2.2762l0.41861-18.404c0.0162-0.72082 0.63052-1.2944 1.3341-1.2751 0.72082 0.0167 1.2913 0.61382 1.2746 1.3341l-0.416 18.346h2.2475l-0.41704-18.345c-0.0162-0.7203 0.55431-1.3174 1.2746-1.3341 0.70881-0.02192 1.3179 0.55432 1.3341 1.2751l0.41861 18.404h2.2762l-0.83247-18.315c-0.0329-0.71977 0.52404-1.3299 1.2443-1.3628 0.71351-0.02714 1.3304 0.52456 1.3623 1.2443l0.89463 19.679c2e-3 0.03288 2e-3 0.06577 1e-3 0.09813-0.0736 3.6093-2.3916 6.6998-5.5933 7.9353l0.42122 42.688c8e-3 0.83878-0.32257 1.6395-0.93064 2.2538-0.66236 0.6681-1.6019 1.0512-2.5779 1.0512zm-0.48333-45.418-0.41495 42.138c-2e-3 0.17589 0.0945 0.31056 0.17537 0.39198 0.34971 0.35336 1.0956 0.35284 1.4463 0 0.0809-0.0819 0.17694-0.21661 0.17537-0.39198l-0.41547-42.138zm-5.4142-7.2437c0.65557 2.6505 3.068 4.6339 5.8976 4.6339 2.83 0 5.2425-1.9834 5.8976-4.6339h-3.4381-3e-3 -4.9137-1e-3 -1e-3zm50.863 47.487c-19.152 0-34.733-15.581-34.733-34.733 0-19.152 15.581-34.733 34.733-34.733 19.152 0 34.733 15.581 34.733 34.733 0 19.152-15.581 34.733-34.733 34.733zm0-66.856c-17.713 0-32.123 14.411-32.123 32.123 0 17.712 14.41 32.123 32.123 32.123s32.124-14.411 32.124-32.123c0-17.712-14.411-32.123-32.124-32.123zm0 57.408c-13.942 0-25.284-11.343-25.284-25.284 0-13.941 11.342-25.284 25.284-25.284 13.942 0 25.284 11.343 25.284 25.284 0 13.941-11.342 25.284-25.284 25.284zm0-47.959c-12.503 0-22.674 10.172-22.674 22.674 0 12.502 10.171 22.674 22.674 22.674 12.503 0 22.674-10.172 22.674-22.674 0-12.502-10.171-22.674-22.674-22.674z" fill="#fff" stroke="#fff" stroke-width=".52195"/>
  <text x="116.14335" y="149.86238" fill="#ffffff" font-family="'Marker Felt'" font-size="19.068px" letter-spacing="1.4843px" stroke="#ffffff" stroke-width=".26458" style="font-variant-caps:normal;font-variant-east-asian:normal;font-variant-ligatures:normal;font-variant-numeric:normal;line-height:1.25" xml:space="preserve"><tspan x="116.14335" y="149.86238" fill="#ffffff" font-family="'Marker Felt'" font-size="19.068px" stroke="#ffffff" stroke-width=".26458" style="font-variant-caps:normal;font-variant-east-asian:normal;font-variant-ligatures:normal;font-variant-numeric:normal">Yo CHO</tspan></text>
  <rect x="127.38" y="160.76" width="37.466" height="1.3624" fill="#fff" fill-rule="evenodd" stroke="#fff" stroke-width=".26458"/>
 </g>
</svg>
