<?xml version="1.0" encoding="UTF-8" standalone="no"?>
<!-- Created with Inkscape (http://www.inkscape.org/) -->

<svg
   width="1122.5197"
   height="793.70081"
   viewBox="0 0 297 210"
   version="1.1"
   id="svg5"
   inkscape:version="1.1.2 (b8e25be8, 2022-02-05)"
   sodipodi:docname="header.svg"
   xmlns:inkscape="http://www.inkscape.org/namespaces/inkscape"
   xmlns:sodipodi="http://sodipodi.sourceforge.net/DTD/sodipodi-0.dtd"
   xmlns="http://www.w3.org/2000/svg"
   xmlns:svg="http://www.w3.org/2000/svg">
  <sodipodi:namedview
     id="namedview7"
     pagecolor="#ffffff"
     bordercolor="#cccccc"
     borderopacity="1"
     inkscape:pageshadow="0"
     inkscape:pageopacity="1"
     inkscape:pagecheckerboard="0"
     inkscape:document-units="px"
     showgrid="false"
     units="px"
     inkscape:zoom="0.39108446"
     inkscape:cx="545.91789"
     inkscape:cy="530.57593"
     inkscape:window-width="1280"
     inkscape:window-height="703"
     inkscape:window-x="0"
     inkscape:window-y="25"
     inkscape:window-maximized="0"
     inkscape:current-layer="layer1"
     showguides="false" />
  <defs
     id="defs2" />
  <g
     inkscape:label="Layer 1"
     inkscape:groupmode="layer"
     id="layer1">
    <path
       id="rect8384"
       style="opacity:1;fill:#cccccc;fill-rule:evenodd;stroke-width:0.264583"
       d="M 6.7653761,6.08885 H 291.58767 V 204.9909 H 6.7653761 Z" />
    <g
       id="g70779"
       transform="matrix(0.54099476,0,0,0.54099476,65.443159,51.859582)">
      <g
         id="g8837"
         transform="matrix(0.03778948,0,0,0.03778948,129.57335,101.64017)"
         style="fill:#000000;fill-opacity:1;stroke:#ffffff;stroke-width:49.0106;stroke-miterlimit:4;stroke-dasharray:none">
        <path
           id="polyline8822"
           style="stroke-linecap:round;stroke-linejoin:round"
           d="M 160,368 32,256 160,144" />
        <path
           id="polyline8824"
           style="stroke-linecap:round;stroke-linejoin:round"
           d="M 352,368 480,256 352,144" />
        <path
           id="line8826"
           style="stroke-linecap:round;stroke-linejoin:round"
           d="M 304,96 208,416" />
      </g>
      <g
         id="g8820"
         transform="matrix(0.11013345,0,0,0.07755237,46.901536,90.368236)"
         style="opacity:1;fill:#cccccf;fill-opacity:1;stroke:#ffffff;stroke-width:20.0403;stroke-miterlimit:4;stroke-dasharray:none">
        <path
           d="m 448,112 c -66.82,17.92 -119.55,32 -192,32 -72.45,0 -125.18,-14.08 -192,-32 l -16,51 c 48,20.53 96.71,35.16 147.2,53.2 L 144,496 200.4,512 246,336 h 20 L 311.6,512 368,496 316.8,216.2 C 367.26,199.93 416,183.53 464,164 Z"
           id="path8808"
           style="fill:#cccccf;fill-opacity:1;stroke:#ffffff;stroke-width:20.0403;stroke-miterlimit:4;stroke-dasharray:none" />
        <path
           d="m 256,112 a 56,56 0 1 1 56,-56 56.06,56.06 0 0 1 -56,56 z"
           id="path8810"
           style="fill:#cccccf;fill-opacity:1;stroke:#ffffff;stroke-width:20.0403;stroke-miterlimit:4;stroke-dasharray:none" />
      </g>
      <path
         d="m 233.38989,108.54416 a 1.1652124,1.0194968 0 0 0 -1.03085,-0.95782 l -2.8238,-0.3999 a 0.59692353,0.52227528 0 0 1 -0.49561,-0.44999 c -0.054,-0.30355 -0.11011,-0.61865 -0.18721,-0.91737 a 0.60793688,0.53191136 0 0 1 0.28965,-0.56371 l 2.50884,-1.21896 a 1.1398816,0.99733377 0 0 0 0.55066,-1.23631 l -0.43502,-1.05033 a 1.1365776,0.99444296 0 0 0 -1.33591,-0.62731 l -2.81393,0.4818 a 0.60573419,0.52998412 0 0 1 -0.64096,-0.27077 c -0.16412,-0.26884 -0.34253,-0.54251 -0.52864,-0.81136 a 0.61674756,0.53962022 0 0 1 0.0485,-0.62634 l 1.87226,-1.891562 a 1.1497937,1.0060063 0 0 0 0.0429,-1.326886 l -0.81718,-0.858576 a 1.1277669,0.98673407 0 0 0 -1.49562,-0.192723 l -2.46369,1.294127 a 0.59361953,0.51938446 0 0 1 -0.70375,-0.06071 c -0.27203,-0.209105 -0.54516,-0.410499 -0.81168,-0.596473 a 0.60022754,0.52516611 0 0 1 -0.18949,-0.598399 l 1.01984,-2.351206 a 1.1398816,0.99733377 0 0 0 -0.47468,-1.259433 l -1.11014,-0.563709 a 1.1354763,0.99347936 0 0 0 -1.4824,0.272701 l -1.80068,1.975392 a 0.50441141,0.44133226 0 0 1 -0.61675,0.165748 c -0.0683,-0.02408 -0.63547,-0.227412 -1.07711,-0.356534 a 0.59692353,0.52227528 0 0 1 -0.41189,-0.503966 l 0.0429,-2.512127 a 1.154199,1.0098607 0 0 0 -0.94383,-1.048405 l -1.26104,-0.19272 a 1.150895,1.0069698 0 0 0 -1.29406,0.690906 l -0.93614,2.390709 a 0.59692353,0.52227528 0 0 1 -0.59032,0.351718 h -1.07379 a 0.60903819,0.53287494 0 0 1 -0.58372,-0.353644 l -0.93173,-2.377219 a 1.1519963,1.0079335 0 0 0 -1.29626,-0.698616 l -1.26214,0.192723 a 1.1519963,1.0079335 0 0 0 -0.94383,1.03973 l 0.0441,2.520798 a 0.60022754,0.52516611 0 0 1 -0.42512,0.505893 c -0.25109,0.08576 -0.79956,0.267885 -1.04735,0.349789 -0.22028,0.06937 -0.46147,-0.0067 -0.66082,-0.202355 l -1.79078,-1.927216 a 1.1343749,0.99251572 0 0 0 -1.47688,-0.278484 l -1.10795,0.561787 a 1.140983,0.99829737 0 0 0 -0.47576,1.26907 l 1.01874,2.345422 a 0.61013955,0.53383857 0 0 1 -0.18721,0.600324 c -0.26762,0.192724 -0.54185,0.385443 -0.81498,0.599365 a 0.59251817,0.51842083 0 0 1 -0.69934,0.06168 l -2.43505,-1.319177 a 1.144287,1.0011882 0 0 0 -1.49892,0.19272 l -0.81498,0.857609 a 1.1365776,0.99444296 0 0 0 0.0406,1.325926 l 1.88219,1.888663 a 0.59692353,0.52227528 0 0 1 0.0496,0.62153 c -0.18835,0.2621 -0.36785,0.53769 -0.53086,0.81329 a 0.60903819,0.53287494 0 0 1 -0.64537,0.27174 l -2.80951,-0.47506 a 1.1387803,0.99637019 0 0 0 -1.33703,0.62731 l -0.44053,1.0484 a 1.1420843,0.999261 0 0 0 0.55068,1.23824 l 2.50884,1.21896 a 0.59361953,0.51938446 0 0 1 0.29186,0.57046 l -0.0254,0.11955 c -0.0584,0.26982 -0.11011,0.52518 -0.16183,0.79691 a 0.60353154,0.52805692 0 0 1 -0.49118,0.44711 l -2.83043,0.3999 a 1.147591,1.004079 0 0 0 -1.00663,0.98963 v 1.11586 a 1.1299696,0.98866131 0 0 0 1.00883,0.98866 l 2.82821,0.39892 a 0.59582218,0.52131166 0 0 1 0.49561,0.45001 c 0.054,0.30449 0.11011,0.61864 0.18721,0.91736 a 0.60793688,0.53191136 0 0 1 -0.28965,0.5637 l -2.50775,1.2209 a 1.1398816,0.99733377 0 0 0 -0.55066,1.2363 l 0.44053,1.05034 a 1.137679,0.99540655 0 0 0 1.33592,0.6273 l 2.81392,-0.47698 a 0.60573419,0.52998412 0 0 1 0.64096,0.27077 c 0.16526,0.26982 0.34363,0.54348 0.52865,0.81136 a 0.61454487,0.53769299 0 0 1 -0.0485,0.62634 l -1.87226,1.89252 a 1.1464896,1.0031154 0 0 0 -0.0551,1.32594 l 0.81609,0.85858 a 1.1277669,0.98673407 0 0 0 1.49562,0.19271 l 2.46369,-1.29413 a 0.59361953,0.51938446 0 0 1 0.70375,0.0608 c 0.27312,0.20911 0.55066,0.4105 0.81168,0.59647 a 0.60022754,0.52516611 0 0 1 0.1895,0.59841 l -1.01983,2.35119 a 1.1398816,0.99733377 0 0 0 0.47468,1.25944 l 1.11344,0.56274 a 1.1343749,0.99251572 0 0 0 1.48129,-0.27174 l 1.82273,-1.96094 c 0.15304,-0.16663 0.39647,-0.2409 0.57709,-0.1773 0.38216,0.13875 0.63877,0.21682 1.09362,0.34979 a 0.59912618,0.52420248 0 0 1 0.41301,0.50398 l -0.0441,2.51019 a 1.1564016,1.0117879 0 0 0 0.94385,1.04841 l 1.26102,0.19271 a 1.1497937,1.0060063 0 0 0 1.29406,-0.69091 l 0.93614,-2.38684 a 0.60353154,0.52805692 0 0 1 0.59032,-0.35172 h 1.07381 a 0.60793688,0.53191136 0 0 1 0.5837,0.35364 l 0.93284,2.37722 a 1.154199,1.0098607 0 0 0 1.10132,0.71404 1.0727002,0.93855373 0 0 0 0.19604,-0.015 l 1.26323,-0.19271 a 1.1519963,1.0079335 0 0 0 0.94275,-1.03974 l -0.0441,-2.5208 a 0.59802485,0.52323888 0 0 1 0.413,-0.50107 c 0.4229,-0.12439 0.71917,-0.22452 0.98129,-0.31221 l 0.066,-0.023 c 0.33701,-0.10218 0.49891,0.0134 0.60244,0.12623 l 1.84474,1.98792 a 1.1343749,0.99251572 0 0 0 1.48019,0.27174 l 1.10903,-0.56179 a 1.1398816,0.99733377 0 0 0 0.4747,-1.26232 l -1.01765,-2.34542 a 0.60793688,0.53191136 0 0 1 0.18606,-0.60033 c 0.26762,-0.19273 0.54185,-0.38544 0.81498,-0.59936 a 0.59361953,0.51938446 0 0 1 0.70265,-0.0598 l 2.4659,1.29123 a 1.144287,1.0011882 0 0 0 1.49892,-0.19272 l 0.81499,-0.85761 a 1.1354763,0.99347936 0 0 0 -0.0408,-1.32496 l -1.87887,-1.89541 a 0.59692353,0.52227528 0 0 1 -0.0496,-0.62154 c 0.18835,-0.26113 0.36785,-0.53673 0.53084,-0.81327 a 0.6123422,0.53576577 0 0 1 0.64537,-0.27174 l 2.80621,0.47891 a 1.1387803,0.99637019 0 0 0 1.33703,-0.62731 l 0.43502,-1.04841 a 1.140983,0.99829737 0 0 0 -0.55067,-1.23727 l -2.51103,-1.22088 a 0.59472086,0.52034806 0 0 1 -0.28745,-0.56757 l 0.0254,-0.12038 c 0.0584,-0.26982 0.11011,-0.52421 0.16182,-0.79595 a 0.60353154,0.52805692 0 0 1 0.49118,-0.44711 l 2.83043,-0.39893 a 1.1486923,1.0050427 0 0 0 1.00994,-0.9906 z m -32.20412,10.72882 a 14.881237,13.020265 0 0 1 0.0551,-20.32635 l 6.60801,10.17666 z m 9.29637,2.8754 a 14.730355,12.888251 0 0 1 -5.34038,-0.87207 l 6.66198,-10.14389 h 13.35037 c -1.10243,6.23069 -7.26109,11.01596 -14.67197,11.01596 z m 1.3282,-15.02265 -6.60249,-10.166051 a 14.743571,12.899814 0 0 1 5.27429,-0.849905 c 7.41088,0 13.56954,4.785276 14.67197,11.015956 z"
         id="path8839"
         style="opacity:1;fill:#cccccf;fill-opacity:1;stroke:#ffffff;stroke-width:1.85208;stroke-miterlimit:4;stroke-dasharray:none" />
      <path
         d="m 160.62801,91.460891 h -42.76112 a 1.527183,1.527183 0 0 0 -1.52718,1.527182 v 30.543657 a 1.527183,1.527183 0 0 0 1.52718,1.52718 h 16.03542 v 3.05437 h -6.87232 v 3.05437 h 24.43493 v -3.05437 h -6.87233 v -3.05437 h 16.03542 a 1.527183,1.527183 0 0 0 1.52719,-1.52718 V 92.988073 a 1.527183,1.527183 0 0 0 -1.52719,-1.527182 z m -1.90898,3.436161 V 115.51402 H 119.77587 V 94.897052 Z M 137.73268,120.6759 a 1.527183,1.527183 0 1 1 1.31624,1.31624 1.527183,1.527183 0 0 1 -1.31624,-1.31624 z"
         id="path8848"
         style="fill:#000000;fill-opacity:1;stroke:#ffffff;stroke-width:1.85208;stroke-miterlimit:4;stroke-dasharray:none" />
      <g
         id="g8878"
         transform="matrix(0.14623238,0,0,0.08892146,110.02779,26.89685)"
         style="opacity:1;fill:#cccccf;fill-opacity:1;stroke:#ffffff;stroke-width:16.2418;stroke-miterlimit:4;stroke-dasharray:none">
        <path
           id="circle8857"
           style="fill:#cccccf;fill-opacity:1;stroke-linecap:round;stroke-linejoin:round"
           d="m 208,96 a 48,48 0 0 1 -48,48 48,48 0 0 1 -48,-48 48,48 0 0 1 48,-48 48,48 0 0 1 48,48 z" />
        <path
           id="circle8859"
           style="fill:#cccccf;fill-opacity:1;stroke-linecap:round;stroke-linejoin:round"
           d="m 208,416 a 48,48 0 0 1 -48,48 48,48 0 0 1 -48,-48 48,48 0 0 1 48,-48 48,48 0 0 1 48,48 z" />
        <path
           id="line8861"
           style="fill:#cccccf;fill-opacity:1;stroke-linecap:round;stroke-linejoin:round"
           d="M 160,368 V 144" />
        <path
           id="circle8863"
           style="fill:#cccccf;fill-opacity:1;stroke-linecap:round;stroke-linejoin:round"
           d="m 400,160 a 48,48 0 0 1 -48,48 48,48 0 0 1 -48,-48 48,48 0 0 1 48,-48 48,48 0 0 1 48,48 z" />
        <path
           d="m 352,208 c 0,128 -192,48 -192,160"
           style="fill:#cccccf;fill-opacity:1;stroke:#ffffff;stroke-width:16.2418;stroke-linecap:round;stroke-linejoin:round;stroke-miterlimit:4;stroke-dasharray:none"
           id="path8865" />
      </g>
      <g
         id="g8904"
         transform="matrix(0.1024588,0,0,0.08966177,117.37063,153.0528)"
         style="opacity:1;fill:#cccccf;fill-opacity:1;stroke:#ffffff;stroke-width:19.3233;stroke-miterlimit:4;stroke-dasharray:none">
        <path
           d="M 256,48 C 141.13,48 48,141.13 48,256 48,370.87 141.13,464 256,464 370.87,464 464,370.87 464,256 464,141.13 370.87,48 256,48 Z"
           style="fill:#cccccf;fill-opacity:1;stroke:#ffffff;stroke-width:19.3233;stroke-miterlimit:4;stroke-dasharray:none"
           id="path8880" />
        <path
           d="m 256,48 c -58.07,0 -112.67,93.13 -112.67,208 0,114.87 54.6,208 112.67,208 58.07,0 112.67,-93.13 112.67,-208 C 368.67,141.13 314.07,48 256,48 Z"
           style="fill:#cccccf;fill-opacity:1;stroke:#ffffff;stroke-width:19.3233;stroke-miterlimit:4;stroke-dasharray:none"
           id="path8882" />
        <path
           d="m 117.33,117.33 c 38.24,27.15 86.38,43.34 138.67,43.34 52.29,0 100.43,-16.19 138.67,-43.34"
           style="fill:#cccccf;fill-opacity:1;stroke:#ffffff;stroke-width:19.3233;stroke-linecap:round;stroke-linejoin:round;stroke-miterlimit:4;stroke-dasharray:none"
           id="path8884" />
        <path
           d="M 394.67,394.67 C 356.43,367.52 308.29,351.33 256,351.33 c -52.29,0 -100.43,16.19 -138.67,43.34"
           style="fill:#cccccf;fill-opacity:1;stroke:#ffffff;stroke-width:19.3233;stroke-linecap:round;stroke-linejoin:round;stroke-miterlimit:4;stroke-dasharray:none"
           id="path8886" />
        <path
           id="line8888"
           d="M 256,48 V 464"
           style="fill:#cccccf;fill-opacity:1" />
        <path
           id="line8890"
           d="M 464,256 H 48"
           style="fill:#cccccf;fill-opacity:1" />
      </g>
    </g>
  </g>
</svg>
