<?xml version="1.0" encoding="UTF-8"?>
<!-- Created with Inkscape (http://www.inkscape.org/) -->
<svg width="1122.5" height="793.7" version="1.1" viewBox="0 0 297 210" xmlns="http://www.w3.org/2000/svg">
 <defs>
  <filter id="filter2515" x="-.26482" y="-.12787" width="1.6398" height="1.3138" color-interpolation-filters="sRGB">
   <feGaussianBlur in="SourceAlpha" result="result0" stdDeviation="4"/>
   <feOffset dx="5" dy="5" result="result4"/>
   <feComposite in="SourceGraphic" in2="result4" operator="xor" result="result3"/>
  </filter>
  <filter id="filter2541" x="-.14948" y="-.13024" width="1.364" height="1.3196" color-interpolation-filters="sRGB">
   <feGaussianBlur in="SourceAlpha" result="result0" stdDeviation="4"/>
   <feOffset dx="5" dy="5" result="result4"/>
   <feComposite in="SourceGraphic" in2="result4" operator="xor" result="result3"/>
  </filter>
 </defs>
 <g stroke="#e6e6e6" stroke-width="2.8273">
  <path d="m78.58 142.46c1.5682 0.96505 7.3585 3.6189 17.612 3.6189 17.733 0 25.091-9.4092 25.091-22.075v-64.055h-18.457v62.728c0 5.0665-1.6888 7.3585-7.1172 7.3585-3.9808 0-8.6854-1.8095-11.46-3.8602z" filter="url(#filter2515)"/>
  <path d="m163.21 97.581c3.0158-10.736 4.8252-17.612 6.2728-24.85h0.48252c1.4476 7.4791 3.1364 13.631 6.3934 25.333l3.257 11.822h-19.904zm-6.1522-37.637-25.574 84.562h18.577l5.4284-19.422h28.348l5.3078 19.422h19.301l-25.694-84.562z" filter="url(#filter2541)"/>
 </g>
</svg>
