<?xml version="1.0" encoding="UTF-8"?>
<!-- Created with Inkscape (http://www.inkscape.org/) -->
<svg width="1122.5" height="793.7" version="1.1" viewBox="0 0 297 210" xmlns="http://www.w3.org/2000/svg">
 <g transform="translate(16.913 8.1185)">
  <g stroke-width="2.5991" aria-label="J">
   <path d="m65.47 103.46v18.292h36.585v-91.462h-9.1462v-18.292h36.585v18.292h-9.1462v95.12l-14.634 14.634h-43.902l-14.634-14.634v-21.951z"/>
  </g>
  <g stroke-width="2.1596" aria-label="A">
   <path d="m132.66 171.16v-15.2h7.5998l22.799-91.198h15.2l22.799 91.198h7.5998v15.2h-30.399v-15.2h7.5998l-3.7999-15.2h-22.799l-3.7999 15.2h7.5998v15.2zm37.999-75.998-7.5998 30.399h15.2z"/>
  </g>
  <g transform="rotate(-89.773)" stroke-width=".22431" aria-label="effery">
   <path d="m-105.94 138.9v-11.051h6.3148v1.5787h-4.7361v3.1574h3.1574v1.5787h-3.1574v3.1574h4.7361v1.5787z"/>
   <path d="m-98.045 138.9v-11.051h6.3148v1.5787h-4.7361v3.1574h3.1574v1.5787h-3.1574v4.7361z"/>
   <path d="m-90.151 138.9v-11.051h6.3148v1.5787h-4.7361v3.1574h3.1574v1.5787h-3.1574v4.7361z"/>
   <path d="m-82.258 138.9v-11.051h6.3148v1.5787h-4.7361v3.1574h3.1574v1.5787h-3.1574v3.1574h4.7361v1.5787z"/>
   <path d="m-74.364 138.9v-11.051h5.0519l1.263 1.263v3.7889l-0.47361 0.47362 0.47361 0.47361v5.0519h-1.5787v-4.7361h-3.1574v4.7361zm1.5787-6.3148h3.1574v-3.1574h-3.1574z"/>
   <path d="m-66.471 127.85h1.5787l2.3681 4.1441 2.3681-4.1441h1.5787l-3.1574 5.5255v5.5255h-1.5787v-5.5255z"/>
  </g>
  <g stroke-width=".18219" aria-label="gyepong">
   <path d="m148.23 188.08-1.0258-1.0258v-6.9241l1.0258-1.0258h3.0774l1.0258 1.0258v1.5387h-1.2822v-1.2822h-2.5645v6.4112h2.5645v-2.5645h-1.2822v-1.2822h2.5645v4.1032l-1.0258 1.0258z"/>
   <path d="m153.62 179.1h1.2822l1.9234 3.3659 1.9234-3.3659h1.2822l-2.5645 4.4879v4.4879h-1.2822v-4.4879z"/>
   <path d="m161.31 188.08v-8.9757h5.129v1.2822h-3.8467v2.5645h2.5645v1.2822h-2.5645v2.5645h3.8467v1.2822z"/>
   <path d="m167.72 188.08v-8.9757h4.1032l1.0258 1.0258v3.0774l-1.0258 1.0258h-2.8209v3.8467zm1.2822-5.129h2.5645v-2.5645h-2.5645z"/>
   <path d="m175.16 188.08-1.0258-1.0258v-6.9241l1.0258-1.0258h3.0774l1.0258 1.0258v6.9241l-1.0258 1.0258zm0.25645-1.2822h2.5645v-6.4112h-2.5645z"/>
   <path d="m180.55 188.08v-8.9757h1.2822l3.2056 6.1548v-6.1548h1.2822v8.9757h-1.2822l-3.2056-6.1548v6.1548z"/>
   <path d="m188.62 188.08-1.0258-1.0258v-6.9241l1.0258-1.0258h3.0774l1.0258 1.0258v1.5387h-1.2822v-1.2822h-2.5645v6.4112h2.5645v-2.5645h-1.2822v-1.2822h2.5645v4.1032l-1.0258 1.0258z"/>
  </g>
 </g>
</svg>
