<?xml version="1.0" encoding="UTF-8"?>
<!-- Created with Inkscape (http://www.inkscape.org/) -->
<svg width="1122.5" height="793.7" version="1.1" viewBox="0 0 297 210" xmlns="http://www.w3.org/2000/svg">
 <g fill="#f5f5f5" stroke="#8db8fa" stroke-width=".58315" aria-label="Jeffery Agyepong">
  <path d="m49.705 100.57-1.7355 1.4462q-0.77131-1.1811-1.1088-2.3862-0.31335-1.2052-0.31335-2.9647 0-4.2422 2.2416-8.7737 0.96414-1.9765 2.1693-3.0611t2.338-1.0847q1.4944 0 2.2416 1.7596 0.74721 1.7355 0.74721 5.1099 0 3.0129-0.79542 6.8695-0.79542 3.8566-2.1452 7.3757 1.3739-0.16873 2.1211-0.16873 0.19283 0 0.36155 0.0241l-0.14462 0.699q-1.2293 0-2.6032 0.19283-1.9524 4.893-4.7243 9.0629-2.7719 4.1699-5.6643 6.508-2.8683 2.338-5.2546 2.338-1.6872 0-2.6514-1.0124-0.96414-1.0124-0.96414-2.7719 0-1.3498 0.7231-2.9647 0.72311-1.5908 2.0247-3.1817 1.3016-1.6149 3.037-2.9888 1.5667-1.2775 3.2781-2.2416 1.7113-0.98825 3.6637-1.7354 1.9765-0.77132 4.1458-1.3257l0.16872-0.45796q2.0247-6.1223 2.796-10.895 0.50617-3.3504 0.50617-5.4474 0-1.7114-0.40976-2.6514-0.40976-0.96414-1.1329-0.96414-1.0365 0-2.097 1.4944-1.0606 1.4703-1.7355 3.7843-0.6749 2.2898-0.6749 4.5074 0 3.5673 1.5908 5.9054zm0.62669 5.5679q-2.8683 0.699-5.5438 2.0488-2.6514 1.3498-4.5797 3.0612-2.2175 2.0006-3.5191 4.3386-1.2775 2.3139-1.2775 4.3386 0 1.2775 0.6508 2.097t1.6631 0.81952q3.0852 0 7.0141-5.3992 0.94004-1.2534 1.9283-3.1094 1.0123-1.8801 2.2898-4.7484 0.72311-1.6631 1.3739-3.4468z"/>
  <path d="m65.975 112.43 0.43386 0.36156q-1.4944 1.9765-2.9165 2.8683-1.4221 0.86773-3.0611 0.86773-1.9524 0-3.1335-1.3016t-1.1811-3.4468q0-2.1693 1.1329-4.3868 1.157-2.2416 2.8683-3.6878 1.7355-1.4703 3.4227-1.4703 0.98824 0 1.6149 0.57848 0.6508 0.57848 0.6508 1.4944 0 1.856-2.0247 3.7119-2.0247 1.856-5.5197 3.1576-0.0241 0.19283-0.0241 0.43386 0 1.6632 0.91593 2.7237 0.91593 1.0364 2.3621 1.0364 1.1329 0 2.1934-0.699 1.0606-0.72311 2.2657-2.2416zm-7.7131-1.8319q2.6032-1.157 4.0012-2.5791 0.94004-0.96414 1.5185-2.0729 0.57848-1.1088 0.57848-2.0006 0-1.1329-1.0365-1.1329-1.5667 0-3.1817 2.4827-1.5908 2.4586-1.8801 5.3028z"/>
  <path d="m71.061 103.29h-2.3621l0.16872-0.81952h2.3862l2.2657-10.581q0.57848-2.6273 1.1811-4.194 0.60259-1.5667 1.4462-2.6996 2.0729-2.7719 5.1582-2.7719 1.0365 0 1.9042 0.33745l-0.86773 2.1934q-0.96414-1.3498-2.4586-1.3498-1.1329 0-1.856 0.89183-0.699 0.86773-1.2052 2.8924l-3.6878 15.282h3.8807l-0.16872 0.81952h-3.9048l-3.3022 13.691q-0.6508 2.7478-1.2534 4.0976-0.62669 1.3498-1.6872 2.5068-1.9283 2.097-4.2181 2.097-1.1088 0-1.9765-0.38566l1.1811-1.7354q1.0123 0.81952 2.1934 0.81952 1.7837 0 2.6755-1.8801 0.6508-1.398 1.3739-4.6279z"/>
  <path d="m78.967 103.29h-2.3621l0.16872-0.81952h2.3862l2.2657-10.581q0.57848-2.6273 1.1811-4.194 0.60259-1.5667 1.4462-2.6996 2.0729-2.7719 5.1582-2.7719 1.0365 0 1.9042 0.33745l-0.86773 2.1934q-0.96414-1.3498-2.4586-1.3498-1.1329 0-1.856 0.89183-0.699 0.86773-1.2052 2.8924l-3.6878 15.282h3.8807l-0.16872 0.81952h-3.9048l-3.3022 13.691q-0.6508 2.7478-1.2534 4.0976-0.62669 1.3498-1.6872 2.5068-1.9283 2.097-4.2181 2.097-1.1088 0-1.9765-0.38566l1.1811-1.7354q1.0123 0.81952 2.1934 0.81952 1.7837 0 2.6755-1.8801 0.6508-1.398 1.3739-4.6279z"/>
  <path d="m93.742 112.43 0.43386 0.36156q-1.4944 1.9765-2.9165 2.8683-1.4221 0.86773-3.0611 0.86773-1.9524 0-3.1335-1.3016t-1.1811-3.4468q0-2.1693 1.1329-4.3868 1.157-2.2416 2.8683-3.6878 1.7355-1.4703 3.4227-1.4703 0.98824 0 1.6149 0.57848 0.6508 0.57848 0.6508 1.4944 0 1.856-2.0247 3.7119-2.0247 1.856-5.5197 3.1576-0.0241 0.19283-0.0241 0.43386 0 1.6632 0.91593 2.7237 0.91593 1.0364 2.3621 1.0364 1.1329 0 2.1934-0.699 1.0606-0.72311 2.2657-2.2416zm-7.7131-1.8319q2.6032-1.157 4.0012-2.5791 0.94004-0.96414 1.5185-2.0729 0.57848-1.1088 0.57848-2.0006 0-1.1329-1.0365-1.1329-1.5667 0-3.1817 2.4827-1.5908 2.4586-1.8801 5.3028z"/>
  <path d="m95.839 109.32q2.0729-2.5068 2.7719-4.6761-1.9524-1.0847-1.9524-3.1094 0-0.96414 0.45797-1.5667 0.45797-0.60259 1.157-0.60259 0.72311 0 1.1811 0.6749 0.45797 0.65079 0.45797 1.7114 0 0.7472-0.26514 1.6631 0.6508 0.16872 1.1811 0.16872 1.4944 0 2.4586-0.86772h1.157l-0.16872 0.33745q-1.7354 3.1817-2.8683 6.2669-1.1088 3.0612-1.1088 4.5797 0 0.55438 0.28924 0.94003 0.28924 0.36156 0.699 0.36156 0.98825 0 3.1817-2.097l0.38565 0.43386q-0.6749 0.74721-2.097 1.856-1.2775 1.0123-2.3862 1.0123-0.94004 0-1.4944-0.62669-0.53028-0.62669-0.53028-1.7114 0-1.8078 1.398-4.5797 0.50617-1.0364 1.3016-2.3621 0.79541-1.3257 2.0006-3.1576l0.24103-0.33745q-0.79541 0.72311-1.5426 1.0364-0.72311 0.28924-1.6631 0.28924-0.43387 0-0.91594-0.12051-0.77131 2.3621-2.8924 4.8689zm3.3022-6.1223q0.09641-0.60259 0.09641-1.0124 0-0.84362-0.28924-1.3257-0.26514-0.48207-0.699-0.48207-0.24104 0-0.43386 0.24103-0.16872 0.21693-0.16872 0.55438 0 1.1329 1.4944 2.0247z"/>
  <path d="m104.4 124.72 1.1811-1.5908q1.398 1.4944 3.1576 1.4944 1.856 0 2.9888-1.4703 1.1329-1.4703 1.856-4.8207l1.1088-4.9894q-2.6514 3.1094-4.7966 3.1094-1.2534 0-1.9765-0.77131-0.69901-0.77132-0.69901-2.0729 0-0.86773 0.21694-1.9042l1.639-8.6532 2.338-0.98825-2.338 9.7137q-0.28924 1.1811-0.28924 1.7596 0 0.81952 0.48207 1.3498 0.50618 0.50618 1.3257 0.50618 0.89183 0 1.9524-0.77132 1.0847-0.79541 2.4104-2.3621l2.0729-9.2075 2.2657-0.98825-3.5191 14.173q-0.62669 2.555-1.2052 4.0012-0.55438 1.4462-1.3016 2.4104-2.3622 3.037-5.7607 3.037-1.9765 0-3.1094-0.96414z"/>
  <path d="m158.32 105.49-2.2898 10.678h-1.5426q-0.89183-2.8442-2.8683-5.5197-1.9524-2.6755-4.435-4.4109-1.639 2.555-3.6637 4.5797-2.0247 2.0247-4.3145 3.4709-2.2657 1.4462-4.7243 2.2416t-4.8207 0.79542q-0.6508 0-1.398-0.12052l0.77132-1.8319q1.2775 0.14462 1.9283 0.14462 6.6044 0 11.763-5.1582 1.0606-1.0606 2.1452-2.4344 1.1088-1.398 2.2898-3.254 2.6273-4.1217 4.4832-7.7131l2.2657-4.3627q2.6755-5.134 4.1217-6.9418 1.4462-1.8319 2.8683-1.8319 0.45797 0 0.79542 0.19283 0.36155 0.19283 0.55438 0.57848 0.19283 0.36155 0.19283 0.81952 0 0.33745-0.12052 0.98824-0.12052 0.86773-0.14462 0.94004l-3.6878 17.33h1.7114l-0.16872 0.81952zm-2.2657 0h-8.4121l0.0964 0.0723q2.1452 1.639 3.6878 3.3745 1.5426 1.7355 3.0129 4.1458zm-7.7613-0.81952h7.9301l3.4227-16.39q0.16872-0.79542 0.16872-0.81952 0.14463-0.48207 0.14463-0.86773 0-0.60259-0.53028-0.60259-0.6508 0-1.5667 1.3739-0.91593 1.3739-3.1817 5.6402-0.33745 0.6508-1.3739 2.6273-0.86773 1.5667-0.94004 1.7355l-2.3139 4.2181q-1.4462 2.6273-1.7596 3.0852z"/>
  <path d="m175.26 101.92-3.6878 14.679q-0.55438 2.3622-0.98824 3.4709-0.40976 1.1088-1.0124 2.0247-1.1329 1.7355-2.7719 2.6514-1.6149 0.94004-3.495 0.94004-1.7114 0-3.0129-0.96414l1.2293-1.5908q1.5667 1.4944 3.1094 1.4944 0.98825 0 2.0006-0.62669 1.0124-0.62669 1.4944-1.5426 0.62669-1.1088 1.3016-4.0253l1.856-7.9542q-3.2299 6.0259-6.5562 6.0259-1.3498 0-2.1934-1.0124-0.81952-1.0364-0.81952-2.6273 0-2.2657 1.2775-4.7243 1.2775-2.4586 3.2058-4.0735 1.9524-1.639 3.7842-1.639 1.7114 0 2.8442 1.2775l0.21693-0.84362zm-2.6996 2.9888q-0.94004-1.8078-2.4827-1.8078-1.6149 0-3.1817 1.7837-1.2775 1.4944-2.1934 3.7602-0.89183 2.2416-0.89183 4.0253 0 1.2052 0.50618 1.9042 0.53027 0.67489 1.4703 0.67489 0.96414 0 2.1211-1.0606 1.1811-1.0606 2.338-2.9888 1.3257-2.1934 2.0488-5.2064z"/>
  <path d="m174.59 124.72 1.1811-1.5908q1.398 1.4944 3.1576 1.4944 1.856 0 2.9888-1.4703 1.1329-1.4703 1.856-4.8207l1.1088-4.9894q-2.6514 3.1094-4.7966 3.1094-1.2534 0-1.9765-0.77131-0.699-0.77132-0.699-2.0729 0-0.86773 0.21693-1.9042l1.639-8.6532 2.338-0.98825-2.338 9.7137q-0.28924 1.1811-0.28924 1.7596 0 0.81952 0.48207 1.3498 0.50617 0.50618 1.3257 0.50618 0.89183 0 1.9524-0.77132 1.0847-0.79541 2.4104-2.3621l2.0729-9.2075 2.2657-0.98825-3.5191 14.173q-0.62669 2.555-1.2052 4.0012-0.55438 1.4462-1.3016 2.4104-2.3621 3.037-5.7607 3.037-1.9765 0-3.1094-0.96414z"/>
  <path d="m201.05 112.43 0.43387 0.36156q-1.4944 1.9765-2.9165 2.8683-1.4221 0.86773-3.0611 0.86773-1.9524 0-3.1335-1.3016t-1.1811-3.4468q0-2.1693 1.1329-4.3868 1.157-2.2416 2.8683-3.6878 1.7354-1.4703 3.4227-1.4703 0.98824 0 1.6149 0.57848 0.6508 0.57848 0.6508 1.4944 0 1.856-2.0247 3.7119-2.0247 1.856-5.5197 3.1576-0.0241 0.19283-0.0241 0.43386 0 1.6632 0.91593 2.7237 0.91593 1.0364 2.3621 1.0364 1.1329 0 2.1934-0.699 1.0606-0.72311 2.2657-2.2416zm-7.7131-1.8319q2.6032-1.157 4.0012-2.5791 0.94004-0.96414 1.5185-2.0729 0.57849-1.1088 0.57849-2.0006 0-1.1329-1.0364-1.1329-1.5667 0-3.1817 2.4827-1.5908 2.4586-1.8801 5.3028z"/>
  <path d="m201.48 125.73 4.5556-22.681 2.3139-0.98825-1.5908 6.9177q1.7837-3.5914 3.3504-5.1582 1.5908-1.5908 3.4709-1.5908 1.4462 0 2.2898 1.0606 0.84362 1.0606 0.84362 2.9165 0 1.8801-0.77131 3.8566-0.74721 1.9765-2.1211 3.5914-2.4827 2.9888-5.4715 2.9888-1.8801 0-3.0852-0.98825l-2.4827 10.075zm4.1458-11.666q1.0123 1.9765 2.8442 1.9765 2.6514 0 4.6279-4.3145 1.6149-3.4709 1.6149-5.833 0-1.2775-0.48207-1.9765t-1.3739-0.699q-1.4462 0-3.037 1.9042-1.5185 1.8801-2.5791 4.194-0.40976 0.91593-0.77131 1.9524-0.33745 1.0365-0.6508 2.1211z"/>
  <path d="m218.77 111.54q0-2.1693 1.157-4.3145 1.1811-2.1693 3.037-3.5191 1.856-1.3498 3.7843-1.3498 2.0247 0 3.254 1.3498 1.2534 1.3257 1.2534 3.4468 0 2.3139-1.157 4.4833-1.1329 2.1693-3.0129 3.5673-1.856 1.3739-3.7602 1.3739-2.0488 0-3.3022-1.3739-1.2534-1.398-1.2534-3.6637zm10.316-5.3028q0-1.4462-0.72311-2.3862-0.699-0.94004-1.8078-0.94004-1.0124 0-1.9524 0.6508-0.91593 0.65079-1.6872 1.9042-0.86773 1.4462-1.4462 3.3745-0.55438 1.9283-0.55438 3.4227 0 1.7837 0.699 2.7478t2.0006 0.96414q2.097 0 3.6878-2.9165 0.81952-1.4944 1.3016-3.3504t0.48207-3.4709z"/>
  <path d="m233.47 116.4 2.555-13.353 2.2898-0.98825-2.0729 8.846q2.0006-4.2181 3.9771-6.4115 1.9765-2.1934 3.7843-2.1934 0.89183 0 1.4462 0.60258 0.55438 0.57849 0.55438 1.5667 0 0.55438-0.26514 1.5667l-0.24104 1.0124-0.7231 2.9406-0.24104 0.94003q-0.36155 1.4462-0.36155 2.2175t0.26514 1.2534q0.26514 0.45797 0.699 0.45797 0.74721 0 2.3862-1.7837l0.38566 0.33745-0.24104 0.26514q-1.3739 1.6149-2.0247 2.1934-0.6508 0.55438-1.2052 0.55438-0.74721 0-1.2775-0.74721-0.50617-0.77132-0.50617-1.9042 0-0.77131 0.28924-2.2898l0.94004-5.11q0.19283-1.2052 0.19283-1.6872 0-0.50617-0.26514-0.77131t-0.72311-0.26514q-1.6631 0-4.0976 3.5673-1.1811 1.7114-1.9524 3.3986-0.77131 1.6631-1.7354 4.6279l-0.21693 0.6508z"/>
  <path d="m262.71 101.92-3.6878 14.679q-0.55438 2.3622-0.98824 3.4709-0.40976 1.1088-1.0124 2.0247-1.1329 1.7355-2.7719 2.6514-1.6149 0.94004-3.495 0.94004-1.7114 0-3.0129-0.96414l1.2293-1.5908q1.5667 1.4944 3.1094 1.4944 0.98824 0 2.0006-0.62669t1.4944-1.5426q0.62669-1.1088 1.3016-4.0253l1.856-7.9542q-3.2299 6.0259-6.5562 6.0259-1.3498 0-2.1934-1.0124-0.81951-1.0364-0.81951-2.6273 0-2.2657 1.2775-4.7243 1.2775-2.4586 3.2058-4.0735 1.9524-1.639 3.7842-1.639 1.7114 0 2.8442 1.2775l0.21693-0.84362zm-2.6996 2.9888q-0.94004-1.8078-2.4827-1.8078-1.6149 0-3.1817 1.7837-1.2775 1.4944-2.1934 3.7602-0.89183 2.2416-0.89183 4.0253 0 1.2052 0.50617 1.9042 0.53028 0.67489 1.4703 0.67489 0.96414 0 2.1211-1.0606 1.1811-1.0606 2.338-2.9888 1.3257-2.1934 2.0488-5.2064z"/>
 </g>
</svg>
