<?xml version="1.0" encoding="UTF-8"?>
<!-- Created with Inkscape (http://www.inkscape.org/) -->
<svg width="1122.5" height="793.7" version="1.1" viewBox="0 0 297 210" xmlns="http://www.w3.org/2000/svg">
 <defs>
  <filter id="filter2038" x="-.17446" y="-.096269" width="1.3507" height="1.1925" color-interpolation-filters="sRGB">
   <feColorMatrix result="result91" type="saturate" values="1"/>
   <feComposite in2="result91" k1="0.3" k2="0.4" k3="0.3" operator="arithmetic" result="result15"/>
   <feGaussianBlur in="result15" result="result8" stdDeviation="5"/>
   <feColorMatrix values="1 0 0 0 0 0 1 0 0 0 0 0 1 0 0 0 0 0 50 0 "/>
   <feComposite in2="SourceGraphic" operator="in" result="result13"/>
   <feComposite in="result15" in2="result13" k1="0.3" k2="0.4" k3="0.3" operator="arithmetic" result="result6"/>
   <feFlood flood-color="rgb(128,172,0)" result="result10"/>
   <feBlend in="result6" in2="result10" mode="darken" result="result12"/>
   <feBlend in2="result6" mode="screen" result="result14"/>
   <feComposite in="result14" in2="SourceGraphic" operator="in"/>
  </filter>
  <filter id="filter2210" x="-.10552" y="-.14405" width="1.211" height="1.2881" color-interpolation-filters="sRGB">
   <feColorMatrix result="result91" type="saturate" values="1"/>
   <feComposite in2="result91" k1="0.3" k2="0.4" k3="0.3" operator="arithmetic" result="result15"/>
   <feGaussianBlur in="result15" result="result8" stdDeviation="5"/>
   <feColorMatrix values="1 0 0 0 0 0 1 0 0 0 0 0 1 0 0 0 0 0 50 0 "/>
   <feComposite in2="SourceGraphic" operator="in" result="result13"/>
   <feComposite in="result15" in2="result13" k1="0.3" k2="0.4" k3="0.3" operator="arithmetic" result="result6"/>
   <feFlood flood-color="rgb(128,172,0)" result="result10"/>
   <feBlend in="result6" in2="result10" mode="darken" result="result12"/>
   <feBlend in2="result6" mode="screen" result="result14"/>
   <feComposite in="result14" in2="SourceGraphic" operator="in"/>
  </filter>
 </defs>
 <g transform="translate(-3.3409 13.631)">
  <path d="m161.85 42.977c-9.5677 0-18.421 0.91045-26.561 2.7289v9.1176c7.7176-2.6645 16.248-3.9986 25.591-3.9986 5.5523 0 11.085 0.45077 16.595 1.3517-0.75318-2.4599-2.221-4.5406-4.467-6.3746a3.0871 2.474 0 0 1-0.0225-0.01674c-1.2805-1.0669-2.6912-1.9344-4.2398-2.632-2.2722-0.11291-4.5686-0.17604-6.8951-0.17604zm31.352 3.7955c0.818 2.7015 1.239 5.6328 1.239 8.7775 0 0.29156-0.0237 0.57024-0.0301 0.85832 4.5138 1.5368 8.6122 3.2798 12.288 5.2331v-10.711c-4.4482-1.6345-8.947-3.0205-13.496-4.1582zm-74.542 4.3445c-3.0101 1.3309-5.8939 2.8226-8.6477 4.48-13.719 8.3427-20.58 18.559-20.58 30.648 0 12.443 7.3774 22.8 22.133 31.072 2.3006 1.2922 4.6667 2.4733 7.0948 3.5489v-12.757c-8.6101-6.366-12.919-13.795-12.919-22.289 0-4.6662 1.2944-9.0493 3.8831-13.15 2.1559-3.2524 5.1703-6.3039 9.0361-9.1563zm88.039 59.837c-7.8954 3.3229-15.662 5.7975-23.297 7.4235-7.5072 1.5554-14.885 2.333-22.133 2.333-9.557 0-18.217-1.3212-25.98-3.9615v9.5731c7.577 1.7025 15.655 2.5541 24.232 2.5541 14.108 0 29.834-2.5449 47.179-7.6353z" filter="url(#filter2210)" stroke="#fff" stroke-width=".74735"/>
  <path d="m120.29 15.873v128.58h10.173v-59.205h14.937c7.7261 0 13.263 1.9683 16.611 5.9043 3.863 4.1547 7.5543 12.956 11.074 26.405l1.2752 5.122c1.7472-0.34128 3.5029-0.73626 5.2689-1.1927 1.5077-0.40075 3.0227-0.84972 4.544-1.3392l-5.8086-19.975c-1.7169-6.3415-4.0779-11.152-7.0825-14.433-0.68675-0.87468-1.5879-1.6399-2.7038-2.2959-1.116-0.76535-2.4039-1.5309-3.8632-2.2963 8.1553-3.1707 14.079-7.4348 17.77-12.792 3.6913-5.3574 5.537-12.246 5.537-20.665 0-12.246-4.0777-20.993-12.233-26.241-5.8375-3.7174-13.22-5.5761-22.148-5.5761zm10.173 11.316h25.11c6.9535 0 12.534 2.1867 16.74 6.5601 3.863 3.936 5.7945 8.9108 5.7945 14.925 0 3.1707-0.60124 6.2869-1.8031 9.3482-1.116 3.0614-2.5752 5.6308-4.3779 7.7082-2.6612 3.28-6.1377 5.6855-10.43 7.2162-4.2064 1.4214-9.4 2.1321-15.581 2.1321h-15.453zm57.964 107.59c-3.5563 0.95498-7.042 1.7628-10.454 2.4154l1.8078 7.2611h11.461z" filter="url(#filter2038)" stroke="#fff" stroke-width=".75688"/>
  <g fill="#f00" stroke="#000" stroke-width=".16665">
   <path d="m62.42 179.63q-2.6876 0-4.7033-0.83188t-3.3595-2.2717q-1.3118-1.4718-1.9837-3.4235-0.63991-1.9837-0.63991-4.2554 0-1.8877 0.63991-3.8074 0.6719-1.9197 1.9837-3.4555 1.3438-1.5678 3.3595-2.5276 2.0157-0.99186 4.7033-0.99186 1.0558 0 1.9197 0.064 0.89587 0.032 1.6958 0.15998 0.79988 0.096 1.5678 0.28796 0.76789 0.15997 1.5998 0.38394 0.032 0.86388 0.22397 2.1117 0.19197 1.2478 0.51193 2.5276-0.25596 0.12799-0.51193 0.12799t-0.47993-0.064q-0.19197-0.064-0.25596-0.35194-0.57592-2.1117-1.8237-3.0076-1.2478-0.89587-3.6155-0.89587-1.9837 0-3.5195 0.6399-1.5038 0.63991-2.5596 1.7918-1.0239 1.1518-1.5678 2.7836-0.51193 1.5998-0.51193 3.5835 0 2.2077 0.6719 4.0634 0.6719 1.8557 1.7917 3.1995 1.1518 1.3438 2.6556 2.0797 1.5358 0.73589 3.2635 0.73589 1.3758 0 2.3037-0.25596 0.95986-0.28796 1.5678-0.79989 0.63991-0.51192 1.0558-1.2478 0.44794-0.76789 0.83188-1.7278 0.22397-0.47993 0.76789-0.47993 0.15998 0 0.31995 0.064 0.19197 0.032 0.28796 0.096-0.38394 1.1198-0.76789 2.4636-0.38394 1.3438-0.63991 2.6876-1.5678 0.25596-3.1995 0.38394-1.6318 0.15998-3.5835 0.15998z"/>
   <path d="m72.88 172.5q0-1.4718 0.54392-2.7836 0.57592-1.3118 1.5358-2.2717t2.2397-1.5038q1.3118-0.57592 2.8156-0.57592 1.5678 0 2.8796 0.54392 1.3118 0.51193 2.2397 1.4398 0.95986 0.92786 1.4718 2.2717 0.54392 1.3118 0.54392 2.8796 0 1.5038-0.57592 2.8156-0.54392 1.2798-1.5038 2.2397t-2.2717 1.5358q-1.2798 0.54392-2.7836 0.54392-1.5678 0-2.8796-0.51193-1.3118-0.54392-2.2717-1.4718-0.92787-0.92786-1.4718-2.2397-0.51193-1.3118-0.51193-2.9116zm3.0076-1.0558q0 1.1838 0.25596 2.4316t0.76789 2.2717q0.54392 0.99186 1.3758 1.6638 0.83188 0.63991 2.0157 0.63991 1.8237 0 2.8156-1.2798 1.0239-1.2798 1.0239-3.2955 0-1.1838-0.25596-2.4636-0.22397-1.3118-0.76789-2.3677-0.51193-1.0878-1.3758-1.7917-0.83188-0.7039-2.0797-0.7039-1.6958 0-2.7516 1.1838-1.0239 1.1518-1.0239 3.7115z"/>
   <path d="m102.75 178.39q0.35195 0 0.38394 0.6719-0.83188 0.57592-2.1117 0.57592-0.7039 0-1.2158-0.22397-0.51193-0.19197-0.86388-0.54392-0.35195-0.35195-0.54392-0.79989-0.19197-0.44793-0.25596-0.92786-0.79988 1.4398-1.9197 1.9837-1.0878 0.51193-2.5276 0.51193-0.63991 0-1.3758-0.12798-0.7039-0.096-1.3438-0.44794-0.63991-0.35195-1.0558-0.99186-0.41594-0.6399-0.41594-1.6958 0-1.1838 0.54392-1.9837 0.57592-0.83188 1.4398-1.3438 0.89587-0.54393 1.9197-0.86388 1.0558-0.31995 2.0157-0.54392 0.54392-0.096 0.99186-0.19197 0.47993-0.12798 0.83188-0.25597 0.44794-0.12798 0.54392-0.35195 0.12798-0.22396 0.12798-0.86387 0-1.5038-0.57592-2.4636-0.57592-0.99185-2.0477-0.99185-0.54392 0-0.92787 0.12798-0.38394 0.12798-0.63991 0.41594-0.25596 0.25596-0.44794 0.7039-0.19197 0.44793-0.38394 1.0558-0.09599 0.35195-0.44794 0.51193-0.31995 0.15998-1.1198 0.38395-0.19197 0.064-0.47993 0.12798-0.28796 0.064-0.47993 0.064-0.31995 0-0.31995-0.67191 0-0.70389 0.54392-1.4078 0.54392-0.7039 1.3758-1.2478 0.86388-0.54393 1.8557-0.86388 0.99186-0.35195 1.8877-0.35195 1.1198 0 2.0157 0.19197 0.89587 0.19198 1.5358 0.7039 0.63991 0.51193 0.95986 1.3758 0.35195 0.86388 0.35195 2.2397v5.5032q0 1.1198 0.064 1.6318 0.096 0.47993 0.25596 0.76789 0.22397 0.44793 0.47994 0.60791 0.28795 0.12798 0.57591 0.12798 0.35195 0 0.47993-0.064 0.15998-0.064 0.31996-0.064zm-4.8313-6.2391-1.0239 0.15997q-0.83188 0.15998-1.6318 0.38395-0.76789 0.22397-1.3758 0.63991-0.60791 0.38394-0.99186 0.99185-0.35195 0.60792-0.35195 1.5038 0 1.2158 0.60791 1.8557 0.63991 0.63991 1.5678 0.63991 0.60791 0 1.1838-0.25597 0.60791-0.28795 1.0239-0.76789 0.44794-0.51192 0.7039-1.1838 0.28796-0.67191 0.28796-1.4718z"/>
  </g>
  <g stroke-width=".16665">
   <path d="m113.2 169.3q-0.25597 0-0.38395-0.096-0.096-0.12798-0.12798-0.25596-0.22397-1.3118-1.0558-1.8557-0.79988-0.57591-2.0157-0.57591-0.92787 0-1.6638 0.54392-0.7039 0.51192-0.7039 1.4398 0 0.83188 0.63991 1.4078 0.6719 0.54392 2.3996 1.0878 0.92787 0.28796 1.6958 0.63991 0.79989 0.35195 1.3438 0.86387 0.57591 0.47994 0.89587 1.2158 0.31995 0.7039 0.31995 1.6958 0 0.83188-0.31995 1.5998-0.28796 0.76789-0.92787 1.3438-0.60791 0.57592-1.5678 0.92787-0.92787 0.35195-2.2397 0.35195-1.0238 0-2.3037-0.25596-1.2478-0.22397-2.2717-0.79989-0.064-0.83188-0.12798-1.7278-0.032-0.92787-0.032-1.8557h0.31995q0.31996 0 0.54393 0.12798 0.22396 0.096 0.25596 0.35195 0.12798 1.3438 1.0238 2.1757 0.92787 0.79989 2.5596 0.79989 1.3118 0 2.0157-0.57592 0.7039-0.60791 0.7039-1.6318 0-1.0558-0.76789-1.5998-0.76789-0.57592-2.2717-1.0239-1.8877-0.57591-2.9756-1.5038-1.0558-0.92787-1.0558-2.7196 0-0.83188 0.31995-1.5678 0.31996-0.7359 0.89587-1.2798 0.57592-0.54392 1.4078-0.86388 0.83188-0.31995 1.8557-0.31995 1.2798 0 2.3996 0.35195 1.1518 0.31995 1.7917 0.7039 0.032 0.25596 0.064 0.63991 0.032 0.35195 0.032 0.76789 0.032 0.38394 0.032 0.79988 0.032 0.38395 0.032 0.7039z" fill="#fc0"/>
   <path d="m124.42 177.36q0.15998-0.15998 0.25597-0.19198 0.12798-0.032 0.19197-0.032 0.28796 0 0.51193 0.41594-0.83188 0.92786-1.7918 1.5038-0.95986 0.57592-2.0477 0.57592-0.63991 0-1.2158-0.15998-0.57591-0.12798-0.99186-0.54392-0.41594-0.41594-0.6719-1.1198-0.22397-0.73589-0.22397-1.8877v-8.8307h-1.9197v-0.35195q0-0.22396 0.064-0.41594 0.096-0.19197 0.35195-0.19197 0.86388 0 1.4078-0.44794 0.54392-0.44793 0.89587-1.1518 0.38394-0.76789 0.6719-1.4398 0.28796-0.67191 0.63991-0.67191h0.57592v3.3275h3.7435q0 0.6719-0.15998 1.0238-0.12798 0.31995-0.51192 0.31995h-3.0716v7.9349q0 1.0238 0.096 1.6638 0.096 0.60791 0.28796 0.95986 0.19197 0.31996 0.44794 0.41594 0.25596 0.096 0.57591 0.096 0.54393 0 0.99186-0.22397 0.47993-0.25596 0.89587-0.57591z" fill="#fc0"/>
   <path d="m141.78 169.91h-2.3677v7.039q0 0.70389 0.63991 0.95986 0.6719 0.25596 2.0157 0.41594 0.38394 0.064 0.38394 0.54392 0 0.22397-0.064 0.54392-0.86388-0.064-2.1117-0.12798-1.2158-0.032-2.3996-0.032-0.83188 0-1.9197 0.032-1.0878 0.064-2.0477 0.12798-0.064-0.31995-0.064-0.51193 0-0.44793 0.35195-0.51192 1.2158-0.19197 1.6958-0.44794 0.51193-0.28796 0.51193-0.92786v-16.286q0-0.60791-0.47993-0.89587-0.44794-0.31996-1.7917-0.47993-0.31996-0.032-0.31996-0.54393 0-0.19197 0.064-0.51192 0.95987 0.064 1.9837 0.12798 1.0238 0.032 1.9517 0.032h4.3194q3.4555 0 5.2152 1.5358 1.7597 1.5038 1.7597 4.0954 0 0.7039-0.25596 1.4718-0.22397 0.76789-0.73589 1.5038-0.47993 0.73589-1.2798 1.3758-0.76789 0.60791-1.8237 0.99186l5.3432 7.4229q0.60791 0.83188 1.3438 1.1518 0.7359 0.31996 1.3758 0.47993 0.28796 0.064 0.28796 0.44794 0 0.25596-0.064 0.57592-0.73589-0.064-1.7917-0.12798-1.0558-0.032-1.9517-0.032-0.6719 0-1.3758-0.57592-0.67191-0.57591-1.2798-1.4718zm-0.67191-1.3118q2.2397 0 3.4555-0.92787 1.2158-0.95986 1.2158-3.3275 0-0.99186-0.25596-1.8237t-0.83188-1.4398q-0.54392-0.60792-1.4718-0.95986-0.89587-0.35195-2.2077-0.35195h-1.5998v8.8307z"/>
   <path d="m165.45 176.27q0.22397-0.22397 0.47993-0.22397 0.31995 0 0.60791 0.54393-0.41594 0.57591-0.95986 1.1198-0.54392 0.54392-1.3118 0.99185-0.7359 0.41594-1.6958 0.67191-0.95986 0.25596-2.2077 0.25596-1.2798 0-2.4316-0.41594t-2.0477-1.2798q-0.86387-0.86387-1.4078-2.1437-0.51193-1.2798-0.51193-3.0076 0-1.6318 0.60791-3.0076 0.63991-1.3758 1.6318-2.3357 0.99186-0.99186 2.1757-1.5358 1.2158-0.54392 2.3357-0.54392 2.9756 0 4.3194 1.7278 1.3758 1.7278 1.3758 4.5114 0 0.19198-0.19197 0.19198l-9.2787 0.41594q0 1.2478 0.35195 2.3037 0.35195 1.0558 0.99186 1.8237t1.5358 1.2158q0.92786 0.41594 2.0797 0.41594 1.0238 0 1.9517-0.47993 0.95986-0.47993 1.5998-1.2158zm-5.1833-9.7586q-1.5998 0-2.4956 1.2478t-0.89587 3.2635l6.0471-0.28796q0.47993 0 0.47993-0.41594 0-0.60791-0.19197-1.2798-0.19197-0.6719-0.57592-1.2158-0.38394-0.57592-0.99185-0.92787-0.57592-0.38394-1.3758-0.38394z" fill="#fc0"/>
   <path d="m173.28 176.66q0.79989 0.83188 1.7598 1.3438 0.95986 0.47993 2.1757 0.47993 0.92786 0 1.6318-0.41594t1.1518-1.1198q0.47993-0.7359 0.7039-1.7278 0.25596-1.0238 0.25596-2.2077 0-1.2158-0.28796-2.3037-0.25596-1.1198-0.79988-1.9517-0.51193-0.83188-1.2798-1.3118-0.7359-0.47993-1.6638-0.47993-0.63991 0-1.2798 0.38395-0.63991 0.35195-1.1838 0.92786-0.51192 0.57592-0.86387 1.3118-0.31996 0.7039-0.31996 1.4398zm-2.6876-8.0948q0-0.89587-0.31995-1.2798-0.28796-0.38394-1.3758-0.47993-0.41594-0.064-0.41594-0.41594 0-0.19197 0.064-0.44793 0.41594 0 1.1198-0.032 0.7359-0.064 1.2158-0.15997 0.7039-0.096 1.2478-0.22397 0.57592-0.15998 0.83188-0.15998 0.41594 0 0.41594 0.47993 0 0.38395-0.064 0.92787-0.032 0.51192-0.032 1.5358 0.95986-1.2478 2.1437-2.0797 1.2158-0.86388 2.9756-0.86388 1.0878 0 2.0797 0.44794 1.0238 0.44793 1.7917 1.3438 0.76789 0.86388 1.2158 2.1437 0.47993 1.2798 0.47993 2.9116 0 1.7917-0.67191 3.1675-0.6719 1.3758-1.6638 2.3357-0.99186 0.92786-2.1757 1.4398-1.1518 0.47993-2.1437 0.47993-1.0238 0-2.0157-0.19197-0.95986-0.19198-2.0157-0.67191v5.7912q0 0.83188 0.7359 1.1198 0.73589 0.31995 2.3996 0.47993 0.35195 0.064 0.35195 0.41594 0 0.19197-0.064 0.51193-0.73589-0.064-2.0157-0.12798-1.2798-0.032-2.3996-0.032-0.83189 0-1.7598 0.032-0.92787 0.064-1.7598 0.12798-0.064-0.31996-0.064-0.51193 0-0.31995 0.28796-0.38394 0.7039-0.15998 1.1518-0.38395 0.44794-0.22397 0.44794-0.73589z" fill="#fc0"/>
  </g>
  <g fill="#4a0" stroke-width=".16665">
   <path d="m187.97 168.69q0-1.0558-0.31996-1.4078-0.28796-0.38394-1.3758-0.47993-0.41594-0.064-0.41594-0.41594 0-0.19197 0.064-0.44793 0.41594 0 1.0878-0.032 0.70389-0.064 1.1838-0.15997 0.70389-0.096 1.2158-0.22397 0.54392-0.15998 0.79989-0.15998 0.44793 0 0.44793 0.47993v7.9988q0 0.79989 0.096 1.4718t0.35195 1.1838q0.25596 0.47993 0.73589 0.76789 0.47993 0.25596 1.2158 0.25596 0.79988 0 1.5678-0.25596 0.76789-0.28796 1.3438-0.79989 0.60791-0.54392 0.95986-1.3118t0.35195-1.7917v-4.6713q0-1.0238-0.31996-1.4078-0.28795-0.38394-1.4078-0.47993-0.41594-0.064-0.41594-0.41594 0-0.19197 0.064-0.44793 0.41594 0 1.0878-0.032 0.7039-0.064 1.2158-0.15997 0.7039-0.096 1.2158-0.22397 0.51193-0.15998 0.76789-0.15998 0.44794 0 0.44794 0.47993v10.399q0 0.54392 0.064 0.89587 0.064 0.31995 0.25596 0.54392 0.19197 0.19197 0.51193 0.31995 0.35195 0.096 0.89587 0.12799 0.41594 0.064 0.41594 0.41594 0 0.19197-0.064 0.44793-0.60791 0-1.2798 0.096-0.6719 0.096-1.2798 0.19197-0.60792 0.096-1.0878 0.19197-0.44793 0.096-0.63991 0.096-0.44793 0-0.44793-0.47993v-2.6556q-0.096 0.096-0.54392 0.60791-0.44794 0.51193-1.1838 1.0878-0.7039 0.57591-1.6638 1.0558-0.92787 0.44794-2.0157 0.44794-1.9517 0-2.9436-1.1198-0.95986-1.1198-0.95986-3.1675z"/>
   <path d="m208.56 176.69q0.79988 0.83188 1.7597 1.3118 0.95987 0.47993 2.2077 0.47993 1.8237 0 2.7516-1.5358 0.95986-1.5358 0.95986-3.9354 0-1.2158-0.28795-2.3037-0.25597-1.1198-0.79989-1.9517-0.51193-0.83188-1.2478-1.3118t-1.6958-0.47993q-0.6399 0-1.2798 0.38395-0.63991 0.35195-1.1838 0.92786-0.51193 0.57592-0.86388 1.3118-0.31995 0.7039-0.31995 1.4398zm-2.6556-16.51q0-0.95987-0.35195-1.3438-0.31995-0.41594-1.4398-0.51193-0.41594-0.064-0.41594-0.44793 0-0.19198 0.064-0.44794 0.41594 0 1.1518-0.032 0.76789-0.064 1.2478-0.12799 0.7359-0.096 1.3118-0.25596 0.57592-0.15998 0.83188-0.15998 0.44794 0 0.44794 0.47994 0 0.54392-0.096 1.2478-0.096 0.70389-0.096 1.7278v7.9988q1.1838-1.5678 2.3357-2.2397 1.1518-0.7039 2.8156-0.7039 1.0878 0 2.0797 0.44794 1.0238 0.44793 1.7917 1.3438 0.76789 0.86388 1.2158 2.1437 0.47993 1.2798 0.47993 2.9116 0 1.7917-0.67191 3.1675-0.6719 1.3758-1.6638 2.3357-0.99185 0.92786-2.1757 1.4398-1.1838 0.47993-2.1757 0.47993-1.2158 0-2.3357-0.28796t-2.0157-0.73589q-0.35195 0.032-0.6719 0.19197-0.31995 0.15998-0.57592 0.35195-0.25596 0.15998-0.47993 0.28796-0.19197 0.15997-0.31995 0.15997-0.25597 0-0.47993-0.12798 0.032-0.51192 0.064-0.89587 0.032-0.41594 0.064-0.79988 0.032-0.38395 0.032-0.76789 0.032-0.41594 0.032-0.92787z"/>
   <path d="m228.49 179.41q-0.83188-0.064-1.6958-0.12798-0.86388-0.032-1.7278-0.032-0.86388 0-1.7917 0.032-0.89587 0.064-1.6958 0.12798-0.064-0.31995-0.064-0.51193 0-0.31995 0.28796-0.38394 0.7039-0.12798 1.3118-0.35195 0.60791-0.25596 0.60791-0.76789v-17.214q0-1.0239-0.41594-1.3758-0.38394-0.38394-1.5038-0.47993-0.41594-0.064-0.41594-0.44793 0-0.19198 0.064-0.44794 0.41594 0 1.1518-0.032 0.7359-0.064 1.3438-0.12799 0.73589-0.096 1.3118-0.25596 0.57592-0.15998 0.83188-0.15998 0.28796 0 0.38395 0.12799 0.096 0.12798 0.096 0.35195 0 0.54392-0.096 1.2798-0.096 0.7039-0.096 1.6638v17.118q0 0.51193 0.57592 0.76789 0.60791 0.22397 1.3438 0.35195 0.25597 0.064 0.25597 0.38394 0 0.19198-0.064 0.51193z"/>
   <path d="m233.94 179.25q-0.54392 0-1.1198 0-0.54392 0.032-1.0238 0.064t-0.83188 0.064-0.44794 0.032q0-0.032-0.032-0.22397t-0.032-0.28796q0-0.31995 0.28796-0.38394 0.83188-0.15998 1.3438-0.38394 0.51192-0.22397 0.51192-0.7359v-8.7028q0-0.95986-0.35195-1.3758-0.31995-0.41594-1.4398-0.51193-0.41594-0.064-0.41594-0.44793 0-0.15998 0.064-0.41594 0.41594 0 1.1518-0.032 0.76789-0.064 1.2478-0.12798 0.73589-0.12798 1.3118-0.25596 0.57592-0.15998 0.83188-0.15998 0.44793 0 0.44793 0.47993 0 0.44794-0.096 1.0878-0.096 0.60791-0.096 1.6318v8.8307q0 0.51193 0.47993 0.7359 0.51193 0.22396 1.4078 0.38394 0.25596 0.064 0.25596 0.38394 0 0.096-0.032 0.28796 0 0.19198-0.032 0.22397-0.096 0-0.44793-0.032-0.31996-0.032-0.79989-0.064t-1.0558-0.064q-0.54392 0-1.0878 0zm-1.8557-19.229q0-0.76789 0.51192-1.3118 0.54393-0.57592 1.3438-0.57592 0.76789 0 1.2798 0.57592 0.51192 0.54392 0.51192 1.3118 0 0.83188-0.51192 1.3438-0.51193 0.51192-1.2798 0.51192-0.79988 0-1.3438-0.51192-0.51192-0.51193-0.51192-1.3438z"/>
   <path d="m245.66 166.58q-1.5038 0-2.4636 1.3118-0.92787 1.3118-0.92787 3.5515 0 3.1036 1.3758 4.8313 1.4078 1.7278 3.7115 1.7278 1.0238 0 1.6958-0.31995 0.7039-0.31995 1.2158-0.63991 0.096-0.064 0.22397-0.12798 0.12798-0.096 0.25596-0.096 0.15998 0 0.35195 0.22397t0.25596 0.35195q-0.31995 0.38395-0.79988 0.76789-0.47993 0.38395-1.1518 0.73589-0.6719 0.31996-1.5998 0.51193-0.89587 0.22397-2.0477 0.22397-1.3118 0-2.4956-0.41594-1.1518-0.44794-2.0477-1.3118-0.86388-0.86388-1.3758-2.1437-0.51193-1.3118-0.51193-3.0396 0-1.6318 0.60791-2.9756 0.63991-1.3758 1.5998-2.3357 0.99186-0.95987 2.1757-1.5038 1.2158-0.54392 2.3677-0.54392 1.1838 0 2.1437 0.25596 0.95986 0.25597 1.6318 0.67191 0.6719 0.41594 1.0238 0.99185 0.38395 0.54393 0.38395 1.1518 0 0.19197-0.31996 0.31995-0.31995 0.12798-0.73589 0.22397-0.38395 0.064-0.76789 0.096-0.35195 0.032-0.41594 0.032-0.41594 0-0.67191-0.38394-0.22396-0.41594-0.51192-0.86388-0.28796-0.47993-0.79989-0.86387-0.47993-0.41594-1.3758-0.41594z"/>
  </g>
 </g>
</svg>
