<?xml version="1.0" encoding="UTF-8"?>
<!-- Created with Inkscape (http://www.inkscape.org/) -->
<svg width="1122.5" height="793.7" version="1.1" viewBox="0 0 297 210" xmlns="http://www.w3.org/2000/svg">
 <g transform="translate(1.3531 13.531)">
  <path d="m96.009 56.421 9.2445 106.68 41.495 11.851 41.6-11.867 9.2604-106.67zm81.492 34.925h-48.683l1.0583 13.494h46.567l-3.5745 40.055-26.059 7.4321-26.109-7.4083-1.7939-20.5h12.769l0.90488 10.395 14.229 3.9105 14.134-3.9476 1.4764-16.973h-44.185l-3.3311-39.579h63.709z" fill="#ef6534" stroke-width=".26458"/>
  <g stroke-width=".35259" aria-label="HTML">
   <path d="m100.73 15.128h6.6018v7.4762h7.2139v-7.4762h6.6309v21.365h-6.6309v-8.6421h-7.2139v8.6421h-6.6018z"/>
   <path d="m124.31 15.128h20.068v5.2756h-6.733v16.089h-6.6018v-16.089h-6.733z"/>
   <path d="m147.53 15.128h8.6858l3.3519 13 3.3373-13h8.6566v21.365h-5.3922v-16.293l-4.1826 16.293h-4.8821l-4.168-16.293v16.293h-5.4068z"/>
   <path d="m175.98 15.128h6.6018v16.104h10.303v5.261h-16.905z"/>
  </g>
 </g>
</svg>
