<?xml version="1.0" encoding="UTF-8"?>
<!-- Created with Inkscape (http://www.inkscape.org/) -->
<svg width="1122.5" height="793.7" version="1.1" viewBox="0 0 297 210" xmlns="http://www.w3.org/2000/svg">
 <path d="m217.87 121.9c-0.38894-3.1538-1.987-5.8896-4.7625-8.1412a0.94721 0.94721 0 0 0-0.11377-0.11641l-0.14023-0.10055-0.045-0.0318-1.4737-1.0583-0.0503-0.037-0.18785-0.13229a0.92604 0.92604 0 0 0-0.21961-0.0926c-4.662-2.7755-12.38-4.7202-24.188-0.55298-2.8178-4.7413-3.138-8.5408-1.2515-14.362 0.33602-1.0134 0.0238-1.6828-0.9816-2.1167-2.0214-0.8599-4.789-0.42069-6.7522 0.0979-0.91546 0.23812-1.4658 0.75671-1.6404 1.5425-1.2435 5.8208-4.8578 11.139-8.3529 16.272l-0.20638 0.30162c-2.1537-4.5667-1.7065-8.1042-0.20632-12.536 0.29898-0.8837 0.0635-1.4711-0.76465-1.9103-2.3125-1.1933-5.7811-0.37306-7.1623 0.0344-1.7515 0.51065-3.6301 5.244-5.7282 10.911-0.52917 1.4261-0.98425 2.6458-1.2568 3.2147-0.64823 1.3229-1.2674 2.831-1.9235 4.4318-1.4817 3.6222-3.1512 7.6994-5.5377 10.261-0.86783-1.9182 0.49742-4.9424 1.823-7.8766 1.569-3.4687 3.0506-6.7469 1.3441-8.8397a3.1274 3.1274 0 0 0-2.204-1.143 3.5084 3.5084 0 0 0-1.6272 0.26459c0.17727-1.4949 0.1852-2.6749-0.25136-4.101-0.62442-2.0346-2.2463-3.175-4.4794-3.1142-5.0853 0.14817-9.3874 3.937-12.105 7.0908-1.8098 2.1167-5.8208 3.7306-9.3424 5.1462-1.3917 0.59001-2.7146 1.1192-3.8179 1.6484-1.7595-1.487-3.9952-2.9871-6.35-4.572-6.6146-4.4397-14.11-9.4747-14.37-16.301-0.37042-10.083 11.112-17.235 21.135-22.339 7.5962-3.8629 14.2-6.4241 20.19-7.8237 8.4138-1.9659 15.52-1.569 21.119 1.1748 3.0639 1.5002 4.4979 4.7625 3.5878 8.1174-2.3812 8.718-12.248 14.692-20.685 17.38-5.0826 1.6192-9.4086 2.2966-13.229 2.0743-4.789-0.27781-8.6995-2.6802-10.372-3.7042a5.6039 5.6039 0 0 0-0.84667-0.47625l-0.0767-0.01852a0.84931 0.84931 0 0 0-0.84402 0.26458c-0.34396 0.4101-0.22225 1.0583-0.0979 1.3864 1.6272 4.2519 4.9874 6.9374 9.9854 7.9825a24.365 24.365 0 0 0 4.9689 0.4736c11.697 0 26.622-6.7442 32.105-12.298 3.7386-3.7835 6.4611-7.6729 7.5882-14.38 1.1774-7.0247-3.5851-11.906-8.4376-14.155-11.792-5.4425-25.186-3.2914-34.346-0.52917-10.716 3.2306-21.802 9.1043-30.411 16.121-10.615 8.6439-14.452 16.669-11.409 23.879 3.1247 7.3898 10.745 12.012 18.113 16.484 2.3812 1.442 4.6461 2.8152 6.686 4.2333-0.61383 0.29898-1.2409 0.60325-1.8785 0.90752-6.186 2.9977-13.203 6.3712-17.095 11.946-2.8258 4.0614-3.3549 8.1042-1.5716 12.017 0.9525 2.0823 2.6458 3.4952 4.998 4.1989a13.229 13.229 0 0 0 3.7624 0.50006c4.5799 0 9.6202-1.8521 12.364-3.5639 4.8472-3.0427 7.9878-7.1279 9.3372-12.142 1.2012-4.4609 0.91281-8.8926-0.83344-12.848l5.9399-2.9951c-2.8654 9.525-0.6694 15.214 1.7436 18.351 0.889 1.1562 2.4924 1.8521 4.2836 1.8838 1.7912 0.0318 3.4396-0.64294 4.3709-1.7912 1.7621-2.1828 3.0639-4.736 4.2624-7.2893-0.0635 1.6669 0.0159 3.3549 0.58473 4.7863 0.51064 1.2885 1.352 2.1431 2.4368 2.4712 1.1536 0.35189 2.5056 0.0556 3.8074-0.83344 5.8658-4.0137 9.8769-13.647 13.1-21.392 0.45773-1.1007 0.89693-2.159 1.3229-3.1486a40.349 40.349 0 0 0 3.3073 8.2206c0.31221 0.56621 0.28575 0.81492-0.13758 1.2806-0.63764 0.6985-1.5266 1.5425-2.4686 2.4368-2.8522 2.7067-6.4029 6.0854-6.8792 9.0567-0.18521 1.1906 0.635 2.2754 1.9076 2.5215 3.8285 0.76199 8.4402-0.3519 12.34-2.9766 3.5454-2.3812 4.8789-5.7018 3.9688-9.8398-0.88106-3.9846 1.1298-8.9323 5.9769-14.716 0.79375 3.3152 1.8521 5.9955 3.3126 8.3423l-0.0397 0.0318c-3.5296 3.0824-8.3661 7.3025-7.6147 12.422a3.5322 3.5322 0 0 0 1.4764 2.4395 3.7624 3.7624 0 0 0 2.9633 0.54504c4.6223-0.97102 8.1015-2.9263 10.631-5.9716 2.5294-3.0454 1.606-6.4214 0.75406-9.0408 6.6146-1.7939 12.504-1.7489 18.018 0.13229 3.0956 1.0583 5.3155 2.7966 6.5961 5.1964 1.6113 3.0189 0.74083 5.805-2.458 7.8449-0.9816 0.62706-1.4552 1.0107-1.4843 1.4949a0.70115 0.70115 0 0 0 0.26458 0.59002c0.37042 0.30427 1.5134 0.83343 4.0984-0.79375 2.3812-1.4949 3.7782-3.5296 4.1354-6.0854a10.319 10.319 0 0 0-3e-3 -2.1193zm-105.76 6.6305-0.0265 0.33866c-0.41275 3.8735-2.3812 7.2496-5.8605 10.054-2.1855 1.7621-4.5588 2.8443-6.6807 3.0506-1.4817 0.14288-2.5585-0.0582-3.1988-0.6006-0.4789-0.40481-0.73554-1.0107-0.79375-1.8521-0.43392-6.7416 10.139-13.441 16.089-15.645a13.597 13.597 0 0 1 0.47096 4.654zm27.08-19.013c-0.97896 5.5801-3.8338 16.113-8.3211 20.201-0.21432 0.1958-0.39423 0.26459-0.47625 0.24607-0.082-0.0185-0.14552-0.11642-0.21167-0.26459-1.4975-3.4713-0.94456-9.3345 1.3229-13.941 1.7436-3.5507 4.2333-5.9028 7.0168-6.6146a1.3996 1.3996 0 0 1 0.35454-0.0503 0.41804 0.41804 0 0 1 0.26458 0.0714 0.43392 0.43392 0 0 1 0.0503 0.35189zm22.09 20.341c-0.84402 0.88107-2.0002 0.762-1.7277 0.43921l4.2968-4.5614c-0.3466 1.569-1.3705 2.8681-2.5691 4.1222zm17.825-3.9449a3.7227 3.7227 0 0 1-1.3044 0.36777c-0.12171-2.3998 2.204-5.1012 4.4979-6.903 0.61648 2.503-0.64559 5.1488-3.1935 6.5352z" fill="#cb6999" stroke-width=".26458"/>
</svg>
